<svg width="72" height="72" viewBox="0 0 72 72" fill="none" xmlns="http://www.w3.org/2000/svg">
<circle cx="36" cy="36" r="36" fill="#EEEEEE"/>
<path d="M22 31.0001L16 36.0001V56.0001H56V36.0001L50 31.0001V50.0001H22V31.0001Z" fill="#DAE5F2"/>
<path d="M22 38.8103V31.0001L31.3139 23.2385L36 27.1437L22 38.8103Z" fill="#DAE5F2"/>
<path d="M50 38.8103V31.0001L40.6861 23.2385L36 27.1437L50 38.8103Z" fill="#DAE5F2"/>
<path d="M36 27.1437L40.6861 23.2386L36 19.3335L31.3138 23.2386L36 27.1437Z" fill="#DAE5F2"/>
<path d="M22 22.0002H29.8277L31.3139 23.2387L36 19.3336L32 16.0002H16V36.0002L22 31.0002V22.0002Z" fill="#1A56A2"/>
<path d="M36 27.1436L40.6861 23.2385L36 19.3334L31.3138 23.2385L36 27.1436Z" fill="#1A56A2"/>
<path d="M42.1723 22H56V16H40L36 19.3333L40.6861 23.2385L42.1723 22Z" fill="#1A56A2"/>
<path d="M56 22H50V31L56 36V22Z" fill="#1A56A2"/>
<g opacity="0.75">
<path d="M50 38.8102V30.9999L40.6861 23.2384L36 27.1435L50 38.8102Z" fill="#21A4CC"/>
<path d="M50 31L56 36V56L50 56V31Z" fill="#21A4CC"/>
<path d="M56 22H50V31L56 36V22Z" fill="#21A4CC"/>
</g>
</svg>
