<svg width="108" height="108" viewBox="0 0 108 108" fill="none" xmlns="http://www.w3.org/2000/svg">
<circle cx="54" cy="54" r="54" fill="#EEEEEE"/>
<path fill-rule="evenodd" clip-rule="evenodd" d="M44.0161 29.7331C43.81 28.9645 43.307 28.3093 42.6178 27.9115C41.9286 27.5137 41.1097 27.4061 40.3411 27.6121C39.5725 27.8182 38.9172 28.3212 38.5194 29.0104C38.1217 29.6996 38.014 30.5185 38.2201 31.2871L38.9971 34.1851C39.2031 34.9537 39.7061 35.609 40.3953 36.0067C41.0845 36.4045 41.9035 36.5122 42.6721 36.3061C43.4407 36.1001 44.0959 35.5971 44.4937 34.9079C44.8914 34.2187 44.9991 33.3997 44.7931 32.6311L44.0131 29.7331H44.0161ZM31.2871 38.2201C30.9058 38.1162 30.5078 38.0886 30.1159 38.139C29.724 38.1893 29.3459 38.3165 29.0033 38.5134C28.6607 38.7103 28.3603 38.9729 28.1195 39.2862C27.8787 39.5995 27.7022 39.9573 27.6 40.339C27.4979 40.7207 27.4721 41.1188 27.5243 41.5105C27.5765 41.9022 27.7055 42.2797 27.904 42.6214C28.1024 42.9631 28.3665 43.2622 28.6809 43.5015C28.9953 43.7409 29.3539 43.9158 29.7361 44.0161L32.6341 44.7931C33.4013 44.9946 34.2171 44.884 34.903 44.4856C35.5888 44.0872 36.089 43.4333 36.2941 42.667C36.4991 41.9008 36.3924 41.0845 35.9971 40.3967C35.6019 39.709 34.9504 39.2058 34.1851 38.9971L31.2871 38.2171V38.2201ZM57.7291 36.5131C58.0076 36.2344 58.2285 35.9035 58.3792 35.5394C58.5298 35.1753 58.6073 34.7851 58.6072 34.3911C58.607 33.997 58.5293 33.6069 58.3784 33.2429C58.2274 32.8789 58.0063 32.5482 57.7276 32.2696C57.4488 31.9911 57.118 31.7702 56.7539 31.6195C56.3898 31.4689 55.9995 31.3914 55.6055 31.3915C55.2115 31.3917 54.8213 31.4694 54.4573 31.6203C54.0933 31.7713 53.7626 31.9924 53.4841 32.2711L51.3631 34.3921C51.0843 34.6709 50.8632 35.0018 50.7124 35.3659C50.5615 35.7301 50.4839 36.1204 50.4839 36.5146C50.4839 36.9088 50.5615 37.2991 50.7124 37.6633C50.8632 38.0275 51.0843 38.3584 51.3631 38.6371C51.6418 38.9159 51.9727 39.137 52.3369 39.2878C52.7011 39.4387 53.0914 39.5163 53.4856 39.5163C53.8797 39.5163 54.2701 39.4387 54.6343 39.2878C54.9984 39.137 55.3293 38.9159 55.6081 38.6371L57.7291 36.5131V36.5131ZM36.5161 57.7291L38.6371 55.6081C39.2004 55.0456 39.5172 54.2823 39.5177 53.4862C39.5183 52.6902 39.2026 51.9264 38.6401 51.3631C38.0775 50.7998 37.3143 50.483 36.5182 50.4825C35.7221 50.4819 34.9584 50.7976 34.3951 51.3601L32.2711 53.4811C31.7081 54.044 31.3919 54.8075 31.3919 55.6036C31.3919 56.3997 31.7081 57.1632 32.2711 57.7261C32.834 58.289 33.5975 58.6053 34.3936 58.6053C35.1897 58.6053 35.9531 58.289 36.5161 57.7261V57.7291ZM46.1161 42.2161C45.5709 41.9979 44.9736 41.9445 44.3984 42.0625C43.8231 42.1805 43.2951 42.4647 42.8799 42.88C42.4647 43.2952 42.1804 43.8232 42.0624 44.3984C41.9444 44.9737 41.9978 45.5709 42.2161 46.1161L54.2161 76.1161C54.4311 76.6531 54.7967 77.1164 55.2689 77.4503C55.7412 77.7843 56.2999 77.9746 56.8778 77.9984C57.4556 78.0221 58.0281 77.8784 58.5262 77.5843C59.0242 77.2903 59.4267 76.8586 59.6851 76.3411L63.8251 68.0641L72.8791 77.1241C73.442 77.6867 74.2053 78.0025 75.0011 78.0022C75.7969 78.002 76.56 77.6856 77.1226 77.1226C77.6851 76.5597 78.001 75.7964 78.0007 75.0006C78.0004 74.2048 77.684 73.4417 77.1211 72.8791L68.0641 63.8191L76.3441 59.6821C76.8605 59.4231 77.2912 59.0205 77.5844 58.5226C77.8775 58.0247 78.0207 57.4527 77.9966 56.8754C77.9725 56.2982 77.7822 55.7401 77.4486 55.2684C77.115 54.7966 76.6523 54.4312 76.1161 54.2161L46.1161 42.2161V42.2161Z" fill="#1A56A2"/>
</svg>
