<svg width="108" height="108" viewBox="0 0 108 108" fill="none" xmlns="http://www.w3.org/2000/svg">
<circle cx="54" cy="54" r="54" fill="#EEEEEE"/>
<path fill-rule="evenodd" clip-rule="evenodd" d="M30 24C26.6863 24 24 26.6863 24 30V78C24 81.3137 26.6863 84 30 84H78C81.3137 84 84 81.3137 84 78V30C84 26.6863 81.3137 24 78 24H30ZM32.0009 26.5C28.9633 26.5 26.5009 28.9624 26.5009 32V76C26.5009 79.0376 28.9634 81.5 32.0009 81.5H76.0009C79.0385 81.5 81.5009 79.0376 81.5009 76V32C81.5009 28.9624 79.0385 26.5 76.0009 26.5H32.0009Z" fill="#1A56A2"/>
<path fill-rule="evenodd" clip-rule="evenodd" d="M34 29.1123C31.2386 29.1123 29 31.3509 29 34.1123V74.1123C29 76.8737 31.2386 79.1123 34 79.1123H74C76.7614 79.1123 79 76.8737 79 74.1123V34.1123C79 31.3509 76.7614 29.1123 74 29.1123H34ZM55.2495 49.1123C53.8688 49.1123 52.7495 50.2316 52.7495 51.6123V71.6123C52.7495 72.993 53.8688 74.1123 55.2495 74.1123C56.6302 74.1123 57.7495 72.993 57.7495 71.6123V51.6123C57.7495 50.2316 56.6302 49.1123 55.2495 49.1123Z" fill="#1A56A2"/>
</svg>
