<svg width="72" height="72" viewBox="0 0 72 72" fill="none" xmlns="http://www.w3.org/2000/svg">
<circle cx="36" cy="36" r="36" fill="#EEEEEE"/>
<path fill-rule="evenodd" clip-rule="evenodd" d="M36.0001 11.9449C36 11.9449 36 11.9449 36 11.9449C24.9543 11.9449 16 20.8993 16 31.9449C16 39.3478 20.022 45.8112 26.0001 49.2693V44.4357C22.3422 41.5035 20 36.9977 20 31.9449C20 23.1084 27.1634 15.9449 36 15.9449C36 15.9449 36 15.9449 36.0001 15.9449V11.9449Z" fill="#1A56A2"/>
<path fill-rule="evenodd" clip-rule="evenodd" d="M26 44.4355V53.9448H30V46.7818C28.5487 46.1943 27.2032 45.4 26 44.4355Z" fill="#1A56A2"/>
<rect x="26" y="53.9448" width="4" height="10" transform="rotate(-90 26 53.9448)" fill="#1A56A2"/>
<rect x="28" y="59.9448" width="4" height="8" transform="rotate(-90 28 59.9448)" fill="#1A56A2"/>
<path fill-rule="evenodd" clip-rule="evenodd" d="M35.9999 11.9448C36 11.9448 36 11.9448 36 11.9448C47.0457 11.9448 56 20.8991 56 31.9448C56 39.3477 51.978 45.8111 45.9999 49.2692V44.4356C49.6578 41.5034 52 36.9976 52 31.9448C52 23.1083 44.8366 15.9448 36 15.9448C36 15.9448 36 15.9448 35.9999 15.9448V11.9448Z" fill="#D4D1CD"/>
<path fill-rule="evenodd" clip-rule="evenodd" d="M46 44.4354V53.9447H42V46.7816C43.4513 46.1942 44.7968 45.3999 46 44.4354Z" fill="#D4D1CD"/>
<rect width="4" height="10" transform="matrix(4.37114e-08 -1 -1 -4.37114e-08 46 53.9447)" fill="#D4D1CD"/>
<rect width="4" height="8" transform="matrix(4.37114e-08 -1 -1 -4.37114e-08 44 59.9447)" fill="#D4D1CD"/>
</svg>
