<svg width="72" height="72" viewBox="0 0 72 72" fill="none" xmlns="http://www.w3.org/2000/svg">
<circle cx="36" cy="36" r="36" fill="#EEEEEE"/>
<mask id="mask0_330_59526" style="mask-type:alpha" maskUnits="userSpaceOnUse" x="0" y="0" width="72" height="72">
<circle cx="36" cy="36" r="36" fill="#FFEDEF"/>
</mask>
<g mask="url(#mask0_330_59526)">
<g clip-path="url(#clip0_330_59526)">
<path d="M46.2317 68.6843C43.5033 64.8949 41.3685 57.5686 41.1159 53.9054L28.1369 48.3159L22.7369 68.6843H46.2317Z" fill="#F9C9B6" stroke="black" stroke-width="0.757895"/>
<mask id="mask1_330_59526" style="mask-type:alpha" maskUnits="userSpaceOnUse" x="22" y="48" width="25" height="23">
<path d="M46.2317 70.5791C43.5033 66.7896 41.3685 57.5686 41.1159 53.9054L28.1369 48.3159L22.7369 70.5791H46.2317Z" fill="#AC6651"/>
</mask>
<g mask="url(#mask1_330_59526)">
<g style="mix-blend-mode:multiply">
<ellipse cx="40.5475" cy="47.9369" rx="11.1789" ry="10.2316" fill="black"/>
</g>
</g>
<mask id="path-6-inside-1_330_59526" fill="white">
<path fill-rule="evenodd" clip-rule="evenodd" d="M51.8946 36.743C51.8894 36.7208 51.8841 36.6986 51.8788 36.6765C51.8735 36.6543 51.8681 36.6321 51.8627 36.61L48.7562 23.6442C48.7532 23.6312 48.7501 23.6182 48.7469 23.6052C48.7438 23.5922 48.7407 23.5792 48.7376 23.5662L48.7239 23.5092L48.7236 23.5092C46.7876 15.6565 38.872 10.8281 30.9948 12.7154C23.1175 14.6027 18.2495 22.494 20.0823 30.3714L20.0819 30.3715L23.3013 43.8086L23.3039 43.808C25.3129 51.5583 33.1698 56.302 40.989 54.4286C48.8082 52.5552 53.6623 44.766 51.9409 36.9468L51.9433 36.9462L51.8946 36.743Z"/>
</mask>
<path fill-rule="evenodd" clip-rule="evenodd" d="M51.8946 36.743C51.8894 36.7208 51.8841 36.6986 51.8788 36.6765C51.8735 36.6543 51.8681 36.6321 51.8627 36.61L48.7562 23.6442C48.7532 23.6312 48.7501 23.6182 48.7469 23.6052C48.7438 23.5922 48.7407 23.5792 48.7376 23.5662L48.7239 23.5092L48.7236 23.5092C46.7876 15.6565 38.872 10.8281 30.9948 12.7154C23.1175 14.6027 18.2495 22.494 20.0823 30.3714L20.0819 30.3715L23.3013 43.8086L23.3039 43.808C25.3129 51.5583 33.1698 56.302 40.989 54.4286C48.8082 52.5552 53.6623 44.766 51.9409 36.9468L51.9433 36.9462L51.8946 36.743Z" fill="#F9C9B6"/>
<path d="M51.8946 36.743L51.1568 36.9163L51.1576 36.9196L51.8946 36.743ZM51.8788 36.6765L52.6159 36.4999L52.6159 36.4999L51.8788 36.6765ZM51.8627 36.61L51.1257 36.7866L51.1265 36.7899L51.8627 36.61ZM48.7562 23.6442L48.0187 23.8189L48.0192 23.8208L48.7562 23.6442ZM48.7469 23.6052L49.484 23.4286L49.484 23.4286L48.7469 23.6052ZM48.7376 23.5662L48.0005 23.7428L48.001 23.7447L48.7376 23.5662ZM48.7239 23.5092L49.4609 23.3326L49.2844 22.5958L48.5476 22.772L48.7239 23.5092ZM48.7236 23.5092L47.9878 23.6906L48.1679 24.4214L48.8999 24.2463L48.7236 23.5092ZM30.9948 12.7154L30.8182 11.9783L30.9948 12.7154ZM20.0823 30.3714L20.2584 31.1086L20.9912 30.9335L20.8204 30.1997L20.0823 30.3714ZM20.0819 30.3715L19.9058 29.6344L19.1682 29.8106L19.3449 30.5481L20.0819 30.3715ZM23.3013 43.8086L22.5643 43.9852L22.7408 44.722L23.4777 44.5457L23.3013 43.8086ZM23.3039 43.808L24.0376 43.6178L23.851 42.8978L23.1276 43.0709L23.3039 43.808ZM40.989 54.4286L41.1656 55.1657H41.1656L40.989 54.4286ZM51.9409 36.9468L51.7642 36.2098L51.0408 36.3832L51.2008 37.1097L51.9409 36.9468ZM51.9433 36.9462L52.12 37.6832L52.8569 37.5065L52.6803 36.7696L51.9433 36.9462ZM52.6324 36.5697C52.627 36.5465 52.6214 36.5232 52.6159 36.4999L51.1418 36.853C51.1468 36.8741 51.1518 36.8952 51.1568 36.9163L52.6324 36.5697ZM52.6159 36.4999C52.6103 36.4766 52.6046 36.4533 52.599 36.4301L51.1265 36.7899C51.1316 36.8109 51.1367 36.832 51.1418 36.853L52.6159 36.4999ZM48.0192 23.8208L51.1257 36.7866L52.5998 36.4334L49.4933 23.4676L48.0192 23.8208ZM49.4937 23.4696C49.4905 23.4559 49.4873 23.4423 49.484 23.4286L48.0099 23.7818C48.0129 23.7941 48.0158 23.8065 48.0187 23.8189L49.4937 23.4696ZM49.484 23.4286C49.4807 23.415 49.4774 23.4013 49.4741 23.3876L48.001 23.7447C48.004 23.757 48.0069 23.7694 48.0099 23.7818L49.484 23.4286ZM47.9869 23.6857L48.0005 23.7428L49.4746 23.3896L49.4609 23.3326L47.9869 23.6857ZM48.8999 24.2463L48.9002 24.2463L48.5476 22.772L48.5474 22.7721L48.8999 24.2463ZM49.4595 23.3278C47.4238 15.0709 39.1008 9.99389 30.8182 11.9783L31.1714 13.4524C38.6432 11.6622 46.1514 16.2422 47.9878 23.6906L49.4595 23.3278ZM30.8182 11.9783C22.5355 13.9628 17.417 22.2602 19.3441 30.5432L20.8204 30.1997C19.0821 22.7278 23.6996 15.2426 31.1714 13.4524L30.8182 11.9783ZM20.258 31.1087L20.2584 31.1086L19.9062 29.6343L19.9058 29.6344L20.258 31.1087ZM24.0383 43.632L20.8189 30.1949L19.3449 30.5481L22.5643 43.9852L24.0383 43.632ZM23.1276 43.0709L23.1249 43.0715L23.4777 44.5457L23.4803 44.545L23.1276 43.0709ZM22.5703 43.9981C24.6827 52.1476 32.9439 57.1355 41.1656 55.1657L40.8124 53.6916C33.3958 55.4686 25.9431 50.969 24.0376 43.6178L22.5703 43.9981ZM41.1656 55.1657C49.3872 53.1958 54.4911 45.0058 52.6811 36.7838L51.2008 37.1097C52.8335 44.5263 48.2291 51.9146 40.8124 53.6916L41.1656 55.1657ZM51.7666 36.2092L51.7642 36.2098L52.1177 37.6838L52.12 37.6832L51.7666 36.2092ZM51.1576 36.9196L51.2063 37.1228L52.6803 36.7696L52.6316 36.5664L51.1576 36.9196Z" fill="black" mask="url(#path-6-inside-1_330_59526)"/>
</g>
<path d="M34.0106 41.7789C34.4843 45 39.8843 46.5158 44.8106 42.821" stroke="black" stroke-width="0.757895"/>
<path d="M27.8528 28.1368C29.0212 28.6105 31.8507 28.7053 33.8212 25.2947" stroke="black" stroke-width="0.757895" stroke-linecap="round"/>
<path d="M40.5475 23.8737C41.5264 24.8842 43.977 26.2989 45.9475 23.8737" stroke="black" stroke-width="0.757895" stroke-linecap="round"/>
<path d="M34.6335 9.18739L34.6479 9.18894L34.6625 9.18936C39.7156 9.33798 43.6437 11.3489 46.4236 13.8031C49.0868 16.1543 50.6772 18.895 51.1958 20.7629C50.4266 21.202 49.1088 21.5798 47.4281 21.8897C45.5948 22.2276 43.3937 22.4745 41.1477 22.6504C36.656 23.0023 32.017 23.0683 29.8503 23.0212L28.6996 22.9962L29.6103 23.6999C30.0835 24.0656 30.7135 24.3201 31.3797 24.4991C32.0508 24.6793 32.7854 24.7899 33.4888 24.8528C34.2134 24.9175 34.9198 24.9327 35.505 24.9178C33.499 26.4643 30.9459 27.6534 28.4284 28.5348C25.5207 29.5528 22.693 30.1492 20.8818 30.4146L20.4746 30.4743L20.5676 30.8752C21.2019 33.6091 22.3678 38.3881 23.1498 41.5934C23.4967 43.0154 23.7681 44.1276 23.8839 44.6141C24.0893 45.477 24.7362 46.7069 25.4745 47.8405C26.1552 48.8858 26.9495 49.9037 27.6197 50.5302L26.1346 56.5579H20.5336C22.1134 54.1492 22.4468 51.3659 22.1247 48.4139C21.776 45.2186 20.6541 41.7814 19.4715 38.3401C19.3551 38.0013 19.2381 37.6625 19.1211 37.3237C18.0441 34.2052 16.9702 31.0952 16.3883 28.1146C15.7438 24.8132 15.7151 21.7235 16.9251 19.0069C18.884 14.6085 22.3566 12.0543 25.8302 10.6468C29.3118 9.23595 32.7686 8.98868 34.6335 9.18739Z" fill="black" stroke="#171921" stroke-width="0.757895"/>
<path fill-rule="evenodd" clip-rule="evenodd" d="M29.7069 33.2454C29.7286 33.3994 29.9244 33.4337 30.0332 33.3226C30.5003 32.8459 31.2184 32.4957 32.0519 32.3967C32.5435 32.3382 33.0166 32.3742 33.438 32.4861C33.5809 32.524 33.7213 32.4034 33.6714 32.2643C33.3559 31.3841 32.4653 30.8056 31.4972 30.9206C30.3715 31.0544 29.5674 32.0754 29.7012 33.2011C29.7029 33.2159 29.7049 33.2307 29.7069 33.2454Z" fill="black"/>
<path fill-rule="evenodd" clip-rule="evenodd" d="M41.8519 31.3506C41.8733 31.5047 42.069 31.5391 42.1781 31.4281C42.6408 30.9572 43.3512 30.6112 44.1755 30.5133C44.6614 30.4555 45.129 30.4908 45.5457 30.6011C45.6886 30.6389 45.829 30.5183 45.7789 30.3792C45.4654 29.5089 44.584 28.9371 43.626 29.051C42.5108 29.1835 41.7142 30.195 41.8467 31.3102C41.8483 31.3237 41.85 31.3372 41.8519 31.3506Z" fill="black"/>
<path d="M38.5914 33.0023C38.63 33.7303 38.9131 35.2914 39.7375 35.7113C40.7679 36.2361 39.9601 37.976 38.0311 37.8644" stroke="#171921" stroke-width="0.757895"/>
<path d="M23.5896 34.1386C23.1482 33.9932 22.6716 33.9158 22.1837 33.9158C20.1955 33.9158 18.5838 35.1474 18.7732 37.4211C18.9706 39.7895 20.385 40.6421 22.3732 40.6421C22.5944 40.6421 22.811 40.6227 23.0212 40.5855C23.2506 40.5449 23.4724 40.4832 23.6844 40.4024" stroke="black" stroke-width="1.51579"/>
<path d="M23.7791 40.3648C23.3472 40.5434 22.872 40.6421 22.3732 40.6421C20.385 40.6421 18.9706 39.7895 18.7732 37.4211C18.5838 35.1474 20.1955 33.9158 22.1837 33.9158C22.7782 33.9158 23.356 34.0307 23.8738 34.2435L23.7791 40.3648Z" fill="#F9C9B6"/>
<path d="M23.0212 35.5264C22.2633 35.1791 20.5959 34.9959 19.9896 37.0422" stroke="black" stroke-width="0.757895"/>
<path d="M21.0317 35.6211C21.4423 35.9685 22.2254 37.0421 22.0738 38.5579" stroke="black" stroke-width="0.757895"/>
<path d="M43.4942 62.6114L43.5208 62.6175L43.5479 62.6198C52.2874 63.3406 57.5281 67.2225 61.3315 72.5684H9.54475C12.6331 67.009 17.0258 63.4703 24.1475 61.8465C27.1816 61.1547 30.7162 60.8097 34.8633 60.8097C36.6548 60.8097 38.049 61.083 39.372 61.4436C39.8621 61.5772 40.3547 61.7269 40.8587 61.8801C41.6928 62.1335 42.558 62.3965 43.4942 62.6114Z" fill="#9287FF" stroke="black" stroke-width="0.757895"/>
<path d="M21.9657 62.2575L23.7 58.5445C23.7414 58.4558 23.8443 58.4136 23.9366 58.4462C31.1227 60.9899 37.66 60.8108 43.7183 59.1244C43.7946 59.1031 43.8761 59.1312 43.9228 59.1951L46.5626 62.8051C46.6351 62.9043 46.5982 63.0442 46.4837 63.0891C40.1161 65.5895 28.1676 65.1645 22.0575 62.5082C21.9606 62.4661 21.921 62.3533 21.9657 62.2575Z" fill="#E0DDFF" stroke="black" stroke-width="0.757895"/>
</g>
<defs>
<clipPath id="clip0_330_59526">
<rect width="37.8947" height="60.6316" fill="white" transform="translate(17.0527 8.1474)"/>
</clipPath>
</defs>
</svg>
