<svg width="72" height="72" viewBox="0 0 72 72" fill="none" xmlns="http://www.w3.org/2000/svg">
<circle cx="36" cy="36" r="36" fill="#EEEEEE"/>
<mask id="mask0_330_59540" style="mask-type:alpha" maskUnits="userSpaceOnUse" x="0" y="0" width="72" height="72">
<circle cx="36" cy="36" r="36" fill="#FFEDEF"/>
</mask>
<g mask="url(#mask0_330_59540)">
<g clip-path="url(#clip0_330_59540)">
<path d="M46.2314 68.6843C43.503 64.8949 41.3683 57.5686 41.1156 53.9054L28.1367 48.3159L22.7367 68.6843H46.2314Z" fill="#AC6651" stroke="black" stroke-width="0.757895"/>
<mask id="mask1_330_59540" style="mask-type:alpha" maskUnits="userSpaceOnUse" x="22" y="48" width="25" height="23">
<path d="M46.2314 70.5791C43.503 66.7896 41.3683 57.5686 41.1156 53.9054L28.1367 48.3159L22.7367 70.5791H46.2314Z" fill="#AC6651"/>
</mask>
<g mask="url(#mask1_330_59540)">
<g style="mix-blend-mode:multiply">
<ellipse cx="40.5472" cy="47.937" rx="11.1789" ry="10.2316" fill="black"/>
</g>
</g>
<mask id="path-6-inside-1_330_59540" fill="white">
<path fill-rule="evenodd" clip-rule="evenodd" d="M51.8944 36.7431C51.8891 36.7209 51.8839 36.6987 51.8786 36.6765C51.8733 36.6543 51.8679 36.6322 51.8625 36.61L48.756 23.6443C48.7529 23.6313 48.7498 23.6183 48.7467 23.6052C48.7436 23.5922 48.7405 23.5792 48.7373 23.5662L48.7236 23.5092L48.7234 23.5093C46.7873 15.6566 38.8718 10.8281 30.9945 12.7154C23.1173 14.6028 18.2493 22.4941 20.082 30.3715L20.0817 30.3716L23.3011 43.8087L23.3037 43.808C25.3127 51.5584 33.1696 56.3021 40.9888 54.4287C48.8079 52.5553 53.6621 44.7661 51.9407 36.9468L51.943 36.9463L51.8944 36.7431Z"/>
</mask>
<path fill-rule="evenodd" clip-rule="evenodd" d="M51.8944 36.7431C51.8891 36.7209 51.8839 36.6987 51.8786 36.6765C51.8733 36.6543 51.8679 36.6322 51.8625 36.61L48.756 23.6443C48.7529 23.6313 48.7498 23.6183 48.7467 23.6052C48.7436 23.5922 48.7405 23.5792 48.7373 23.5662L48.7236 23.5092L48.7234 23.5093C46.7873 15.6566 38.8718 10.8281 30.9945 12.7154C23.1173 14.6028 18.2493 22.4941 20.082 30.3715L20.0817 30.3716L23.3011 43.8087L23.3037 43.808C25.3127 51.5584 33.1696 56.3021 40.9888 54.4287C48.8079 52.5553 53.6621 44.7661 51.9407 36.9468L51.943 36.9463L51.8944 36.7431Z" fill="#AC6651"/>
<path d="M51.8944 36.7431L51.1565 36.9164L51.1573 36.9197L51.8944 36.7431ZM51.8786 36.6765L52.6156 36.5L52.6156 36.5L51.8786 36.6765ZM51.8625 36.61L51.1254 36.7866L51.1263 36.7899L51.8625 36.61ZM48.756 23.6443L48.0185 23.8189L48.019 23.8209L48.756 23.6443ZM48.7467 23.6052L49.4837 23.4286L49.4837 23.4286L48.7467 23.6052ZM48.7373 23.5662L48.0003 23.7428L48.0007 23.7448L48.7373 23.5662ZM48.7236 23.5092L49.4607 23.3326L49.2842 22.5959L48.5474 22.7721L48.7236 23.5092ZM48.7234 23.5093L47.9875 23.6907L48.1677 24.4214L48.8996 24.2464L48.7234 23.5093ZM30.9945 12.7154L30.8179 11.9784L30.8179 11.9784L30.9945 12.7154ZM20.082 30.3715L20.2581 31.1086L20.9909 30.9336L20.8202 30.1997L20.082 30.3715ZM20.0817 30.3716L19.9055 29.6344L19.1679 29.8107L19.3446 30.5482L20.0817 30.3716ZM23.3011 43.8087L22.564 43.9852L22.7406 44.7221L23.4774 44.5457L23.3011 43.8087ZM23.3037 43.808L24.0373 43.6179L23.8507 42.8978L23.1273 43.0709L23.3037 43.808ZM40.9888 54.4287L41.1653 55.1657L41.1653 55.1657L40.9888 54.4287ZM51.9407 36.9468L51.764 36.2098L51.0406 36.3833L51.2005 37.1098L51.9407 36.9468ZM51.943 36.9463L52.1198 37.6833L52.8566 37.5066L52.6801 36.7697L51.943 36.9463ZM52.6322 36.5698C52.6267 36.5466 52.6212 36.5233 52.6156 36.5L51.1415 36.8531C51.1466 36.8741 51.1516 36.8952 51.1565 36.9164L52.6322 36.5698ZM52.6156 36.5C52.61 36.4766 52.6044 36.4534 52.5987 36.4301L51.1263 36.7899C51.1314 36.811 51.1365 36.832 51.1415 36.8531L52.6156 36.5ZM48.019 23.8209L51.1254 36.7866L52.5995 36.4335L49.493 23.4677L48.019 23.8209ZM49.4935 23.4696C49.4903 23.456 49.487 23.4423 49.4837 23.4286L48.0097 23.7818C48.0126 23.7942 48.0156 23.8065 48.0185 23.8189L49.4935 23.4696ZM49.4837 23.4286C49.4805 23.415 49.4772 23.4014 49.4739 23.3877L48.0007 23.7448C48.0037 23.7571 48.0067 23.7695 48.0097 23.7819L49.4837 23.4286ZM47.9866 23.6858L48.0003 23.7428L49.4743 23.3897L49.4607 23.3326L47.9866 23.6858ZM48.8996 24.2464L48.8999 24.2463L48.5474 22.7721L48.5471 22.7722L48.8996 24.2464ZM49.4592 23.3279C47.4235 15.0709 39.1006 9.99395 30.8179 11.9784L31.1711 13.4525C38.6429 11.6623 46.1511 16.2423 47.9875 23.6907L49.4592 23.3279ZM30.8179 11.9784C22.5353 13.9629 17.4168 22.2603 19.3438 30.5432L20.8202 30.1997C19.0818 22.7278 23.6993 15.2426 31.1711 13.4525L30.8179 11.9784ZM20.2578 31.1087L20.2581 31.1086L19.9059 29.6343L19.9055 29.6344L20.2578 31.1087ZM24.0381 43.6321L20.8187 30.195L19.3446 30.5482L22.564 43.9852L24.0381 43.6321ZM23.1273 43.0709L23.1247 43.0716L23.4774 44.5457L23.4801 44.5451L23.1273 43.0709ZM22.5701 43.9982C24.6825 52.1477 32.9437 57.1356 41.1653 55.1657L40.8122 53.6917C33.3955 55.4686 25.9428 50.969 24.0373 43.6179L22.5701 43.9982ZM41.1653 55.1657C49.387 53.1959 54.4909 45.0059 52.6809 36.7839L51.2005 37.1098C52.8333 44.5263 48.2288 51.9147 40.8122 53.6917L41.1653 55.1657ZM51.7663 36.2093L51.764 36.2098L52.1174 37.6838L52.1198 37.6833L51.7663 36.2093ZM51.1573 36.9197L51.206 37.1229L52.6801 36.7697L52.6314 36.5665L51.1573 36.9197Z" fill="black" mask="url(#path-6-inside-1_330_59540)"/>
</g>
<path d="M46.0056 43.2335C46.2075 42.5029 46.2787 41.743 46.2166 40.9888C46.1843 40.5971 45.7838 40.3789 45.4443 40.5127C44.6431 40.8284 41.9925 41.8325 40.1235 42.0896C38.0729 42.3717 34.9675 42.0291 34.0686 41.9175C33.7031 41.8721 33.3772 42.1863 33.4403 42.5681C33.5638 43.3151 33.8181 44.0352 34.1922 44.6951C34.6095 45.431 35.1676 46.0776 35.8347 46.5978C36.5019 47.118 37.2649 47.5017 38.0804 47.7271C38.8958 47.9524 39.7476 48.0149 40.5872 47.911C41.4268 47.8072 42.2377 47.5389 42.9736 47.1217C43.7096 46.7044 44.3561 46.1463 44.8763 45.4792C45.3965 44.812 45.7803 44.049 46.0056 43.2335Z" fill="black" stroke="black" stroke-width="0.757895"/>
<mask id="mask2_330_59540" style="mask-type:alpha" maskUnits="userSpaceOnUse" x="33" y="40" width="13" height="8">
<path d="M45.8135 40.7732C45.9113 41.5634 45.8524 42.3651 45.6403 43.1326C45.4283 43.9001 45.0671 44.6182 44.5775 45.2461C44.0879 45.874 43.4794 46.3993 42.7867 46.792C42.0941 47.1847 41.3309 47.4372 40.5407 47.535C39.7505 47.6327 38.9488 47.5739 38.1813 47.3618C37.4138 47.1497 36.6957 46.7886 36.0678 46.299C35.4399 45.8093 34.9146 45.2008 34.5219 44.5082C34.1291 43.8156 33.8767 43.0523 33.7789 42.2621L45.8135 40.7732Z" fill="#171921"/>
</mask>
<g mask="url(#mask2_330_59540)">
<circle cx="40.6462" cy="48.3753" r="4.07368" transform="rotate(-7.05286 40.6462 48.3753)" fill="#FC909F"/>
</g>
<path d="M41.4948 25.0512C42.5684 24.5459 45.0948 24.0849 46.6105 26.2828" stroke="black" stroke-width="0.757895" stroke-linecap="round"/>
<path d="M27.2045 29.8461C27.5968 28.7262 29.039 26.6014 31.669 27.0611" stroke="black" stroke-width="0.757895" stroke-linecap="round"/>
<path d="M27.6772 28.6973L26.5122 27.6691" stroke="black" stroke-width="0.757895" stroke-linecap="round"/>
<path d="M46.0346 25.2298L47.1996 24.2016" stroke="black" stroke-width="0.757895" stroke-linecap="round"/>
<path d="M28.8991 27.628L28.1323 26.2766" stroke="black" stroke-width="0.757895" stroke-linecap="round"/>
<path d="M44.6233 24.5394L45.39 23.188" stroke="black" stroke-width="0.757895" stroke-linecap="round"/>
<path d="M30.4294 26.9433L30.0123 25.4465" stroke="black" stroke-width="0.757895" stroke-linecap="round"/>
<path d="M42.9035 24.4232L43.3206 22.9264" stroke="black" stroke-width="0.757895" stroke-linecap="round"/>
<path opacity="0.25" d="M46.7971 20.4963C45.2813 19.2837 42.6603 19.17 41.5866 19.2648L40.0708 14.2437C42.6476 14.85 46.134 18.7911 46.7971 20.4963Z" fill="black"/>
<path d="M27.4342 8.10264C27.4342 8.10264 28.5213 7.35202 33.1097 6.19603C37.698 5.04004 39.371 5.49163 39.371 5.49163L41.6046 19.2913C41.6046 19.2913 40.0814 19.2585 36.2932 20.0859C32.505 20.9133 30.6919 21.9174 30.6919 21.9174L27.4342 8.10264Z" fill="black"/>
<path d="M20.4603 22.2964C19.1719 14.4142 24.8813 9.38056 27.4708 7.99109L30.6919 21.9174C27.054 14.4142 22.1024 19.0437 20.4603 22.2964Z" fill="black"/>
<path opacity="0.25" d="M23.9656 30.6331C22.6014 25.4794 28.134 22.7067 30.6919 21.9172C29.3656 18.8225 26.334 16.0435 22.6392 19.4542C19.2287 25.2331 20.555 29.6858 21.5972 33.0963L23.9656 30.6331Z" fill="black"/>
<ellipse cx="31.8373" cy="32.3608" rx="1.70526" ry="2.55789" transform="rotate(-6.77646 31.8373 32.3608)" fill="black"/>
<ellipse cx="43.9637" cy="30.466" rx="1.70526" ry="2.55789" transform="rotate(-6.27568 43.9637 30.466)" fill="black"/>
<path d="M38.4858 32.2519C38.855 34.8787 40.4585 36.758 40.4585 36.758C40.4585 36.758 39.96 37.9761 38.031 37.8645" stroke="#171921" stroke-width="0.757895"/>
<path d="M24.8211 34.5316V34.3195L24.6403 34.2086C23.9329 33.7745 23.0726 33.5369 22.1836 33.5369C21.1149 33.5369 20.1144 33.868 19.4017 34.5402C18.681 35.2199 18.2922 36.2137 18.3955 37.4526C18.4961 38.6599 18.9014 39.5484 19.5736 40.1388C19.5184 40.3282 19.5021 40.5323 19.5276 40.747C19.6014 41.3663 19.9145 41.8125 20.3983 42.0875C20.8594 42.3496 21.4496 42.4422 22.0783 42.4422C23.1165 42.4422 24.0268 41.8838 24.7199 41.1369L24.8211 41.0279V40.8792V34.5316Z" stroke="black" stroke-width="0.757895"/>
<path fill-rule="evenodd" clip-rule="evenodd" d="M25.9526 37.5131C25.9661 37.3895 25.9731 37.264 25.9731 37.1369C25.9731 35.201 24.1718 33.9159 22.1836 33.9159C20.1954 33.9159 18.5836 35.1475 18.7731 37.4212C18.8785 38.6863 19.3312 39.519 20.0332 40.0202C19.9217 40.2142 19.8729 40.442 19.9039 40.7022C20.0231 41.7029 20.8774 42.0632 22.0783 42.0632C24.1823 42.0632 25.8471 39.402 25.9526 37.5131Z" fill="#AC6651"/>
<path d="M23.0211 35.5265C22.2632 35.1791 20.5958 34.996 19.9895 37.0423" stroke="black" stroke-width="0.757895"/>
<path d="M21.0316 35.6212C21.4421 35.9685 22.2253 37.0422 22.0737 38.558" stroke="black" stroke-width="0.757895"/>
<path d="M61.2693 72.5425H9.56011C9.56664 72.5292 9.57322 72.5158 9.57984 72.5023C10.441 70.7486 12.0296 67.5132 14.0973 64.6184C15.2708 62.9755 16.5847 61.4629 17.9889 60.399C19.3933 59.3349 20.8537 58.7446 22.3373 58.8744C25.1897 59.124 27.7304 60.6857 30.281 62.2536C30.5227 62.4022 30.7645 62.5508 31.0066 62.6984C33.7511 64.3709 36.5694 65.9239 39.6691 65.2443C40.7177 65.0144 41.4244 64.5224 41.8692 63.8868C42.3076 63.2602 42.4652 62.5319 42.4925 61.8664C42.5198 61.1999 42.4176 60.5698 42.3115 60.1118C42.2619 59.8976 42.2108 59.7181 42.1699 59.5865C42.8568 58.8952 43.584 58.4925 44.3348 58.3112C45.1485 58.1148 46.0186 58.1715 46.9339 58.4423C48.7774 58.9876 50.7499 60.3848 52.6749 62.1813C56.2018 65.473 59.4379 69.9771 61.2693 72.5425Z" fill="#F4D150" stroke="black" stroke-width="0.809868"/>
</g>
<defs>
<clipPath id="clip0_330_59540">
<rect width="37.8947" height="60.6316" fill="white" transform="translate(17.0525 8.14746)"/>
</clipPath>
</defs>
</svg>
