<svg width="72" height="72" viewBox="0 0 72 72" fill="none" xmlns="http://www.w3.org/2000/svg">
<circle cx="36" cy="36" r="36" fill="#EEEEEE"/>
<mask id="mask0_330_59554" style="mask-type:alpha" maskUnits="userSpaceOnUse" x="0" y="0" width="72" height="72">
<circle cx="36" cy="36" r="36" fill="#FFEDEF"/>
</mask>
<g mask="url(#mask0_330_59554)">
<g clip-path="url(#clip0_330_59554)">
<path d="M46.2316 68.6843C43.5031 64.8949 41.3684 57.5686 41.1158 53.9054L28.1368 48.3159L22.7368 68.6843H46.2316Z" fill="#F9C9B6" stroke="black" stroke-width="0.757895"/>
<mask id="mask1_330_59554" style="mask-type:alpha" maskUnits="userSpaceOnUse" x="22" y="48" width="25" height="23">
<path d="M46.2316 70.5791C43.5031 66.7896 41.3684 57.5686 41.1158 53.9054L28.1368 48.3159L22.7368 70.5791H46.2316Z" fill="#AC6651"/>
</mask>
<g mask="url(#mask1_330_59554)">
<g style="mix-blend-mode:multiply">
<ellipse cx="40.5472" cy="47.937" rx="11.1789" ry="10.2316" fill="black"/>
</g>
</g>
<mask id="path-6-inside-1_330_59554" fill="white">
<path fill-rule="evenodd" clip-rule="evenodd" d="M51.8945 36.7431C51.8893 36.7209 51.884 36.6987 51.8787 36.6765C51.8734 36.6543 51.868 36.6322 51.8626 36.61L48.7561 23.6443C48.753 23.6313 48.75 23.6182 48.7468 23.6052C48.7437 23.5922 48.7406 23.5792 48.7374 23.5662L48.7238 23.5092L48.7235 23.5093C46.7875 15.6566 38.8719 10.8281 30.9947 12.7154C23.1174 14.6027 18.2494 22.4941 20.0822 30.3715L20.0818 30.3716L23.3012 43.8086L23.3038 43.808C25.3128 51.5584 33.1697 56.3021 40.9889 54.4287C48.8081 52.5553 53.6622 44.7661 51.9408 36.9468L51.9432 36.9463L51.8945 36.7431Z"/>
</mask>
<path fill-rule="evenodd" clip-rule="evenodd" d="M51.8945 36.7431C51.8893 36.7209 51.884 36.6987 51.8787 36.6765C51.8734 36.6543 51.868 36.6322 51.8626 36.61L48.7561 23.6443C48.753 23.6313 48.75 23.6182 48.7468 23.6052C48.7437 23.5922 48.7406 23.5792 48.7374 23.5662L48.7238 23.5092L48.7235 23.5093C46.7875 15.6566 38.8719 10.8281 30.9947 12.7154C23.1174 14.6027 18.2494 22.4941 20.0822 30.3715L20.0818 30.3716L23.3012 43.8086L23.3038 43.808C25.3128 51.5584 33.1697 56.3021 40.9889 54.4287C48.8081 52.5553 53.6622 44.7661 51.9408 36.9468L51.9432 36.9463L51.8945 36.7431Z" fill="#F9C9B6"/>
<path d="M51.8945 36.7431L51.1567 36.9164L51.1574 36.9197L51.8945 36.7431ZM51.8787 36.6765L52.6157 36.5L52.6157 36.5L51.8787 36.6765ZM51.8626 36.61L51.1256 36.7866L51.1264 36.7899L51.8626 36.61ZM48.7561 23.6443L48.0186 23.8189L48.0191 23.8209L48.7561 23.6443ZM48.7468 23.6052L49.4839 23.4286L49.4839 23.4286L48.7468 23.6052ZM48.7374 23.5662L48.0004 23.7428L48.0009 23.7448L48.7374 23.5662ZM48.7238 23.5092L49.4608 23.3326L49.2843 22.5959L48.5475 22.7721L48.7238 23.5092ZM48.7235 23.5093L47.9876 23.6907L48.1678 24.4214L48.8998 24.2464L48.7235 23.5093ZM30.9946 12.7154L30.8181 11.9784L30.8181 11.9784L30.9946 12.7154ZM20.0821 30.3715L20.2583 31.1086L20.9911 30.9336L20.8203 30.1997L20.0821 30.3715ZM20.0818 30.3716L19.9057 29.6344L19.168 29.8107L19.3447 30.5482L20.0818 30.3716ZM23.3012 43.8087L22.5641 43.9852L22.7407 44.7221L23.4776 44.5457L23.3012 43.8087ZM23.3038 43.808L24.0375 43.6179L23.8508 42.8978L23.1274 43.0709L23.3038 43.808ZM40.9889 54.4287L41.1655 55.1657L41.1655 55.1657L40.9889 54.4287ZM51.9408 36.9468L51.7641 36.2098L51.0407 36.3833L51.2007 37.1098L51.9408 36.9468ZM51.9432 36.9463L52.1199 37.6833L52.8568 37.5066L52.6802 36.7697L51.9432 36.9463ZM52.6323 36.5698C52.6268 36.5466 52.6213 36.5233 52.6157 36.5L51.1416 36.8531C51.1467 36.8741 51.1517 36.8952 51.1567 36.9164L52.6323 36.5698ZM52.6157 36.5C52.6101 36.4766 52.6045 36.4534 52.5988 36.4301L51.1264 36.7899C51.1315 36.811 51.1366 36.832 51.1416 36.8531L52.6157 36.5ZM48.0191 23.8209L51.1256 36.7866L52.5996 36.4335L49.4932 23.4677L48.0191 23.8209ZM49.4936 23.4696C49.4904 23.456 49.4871 23.4423 49.4839 23.4286L48.0098 23.7818C48.0127 23.7942 48.0157 23.8065 48.0186 23.8189L49.4936 23.4696ZM49.4839 23.4286C49.4806 23.415 49.4773 23.4014 49.474 23.3877L48.0009 23.7448C48.0039 23.7571 48.0068 23.7695 48.0098 23.7819L49.4839 23.4286ZM47.9867 23.6858L48.0004 23.7428L49.4745 23.3897L49.4608 23.3326L47.9867 23.6858ZM48.8998 24.2464L48.9 24.2463L48.5475 22.7721L48.5472 22.7722L48.8998 24.2464ZM49.4594 23.3279C47.4236 15.0709 39.1007 9.99395 30.8181 11.9784L31.1712 13.4525C38.643 11.6623 46.1513 16.2423 47.9876 23.6907L49.4594 23.3279ZM30.8181 11.9784C22.5354 13.9629 17.4169 22.2603 19.344 30.5432L20.8203 30.1997C19.0819 22.7278 23.6994 15.2426 31.1712 13.4525L30.8181 11.9784ZM20.2579 31.1087L20.2583 31.1086L19.906 29.6343L19.9057 29.6344L20.2579 31.1087ZM24.0382 43.6321L20.8188 30.195L19.3447 30.5482L22.5641 43.9852L24.0382 43.6321ZM23.1274 43.0709L23.1248 43.0716L23.4776 44.5457L23.4802 44.5451L23.1274 43.0709ZM22.5702 43.9982C24.6826 52.1477 32.9438 57.1356 41.1655 55.1657L40.8123 53.6917C33.3956 55.4686 25.943 50.969 24.0375 43.6179L22.5702 43.9982ZM41.1655 55.1657C49.3871 53.1959 54.491 45.0059 52.681 36.7839L51.2007 37.1098C52.8334 44.5263 48.229 51.9147 40.8123 53.6917L41.1655 55.1657ZM51.7664 36.2093L51.7641 36.2098L52.1176 37.6838L52.1199 37.6833L51.7664 36.2093ZM51.1574 36.9197L51.2061 37.1229L52.6802 36.7697L52.6315 36.5665L51.1574 36.9197Z" fill="black" mask="url(#path-6-inside-1_330_59554)"/>
</g>
<path d="M35.9998 43.0419C36.9359 44.2634 38.3544 45.6166 40.5426 45.308C42.7309 44.9994 43.7045 43.49 43.4174 42.2675" stroke="black" stroke-width="0.757895"/>
<path d="M41.4946 25.0512C42.5683 24.5459 45.0946 24.0849 46.6104 26.2828" stroke="black" stroke-width="0.757895" stroke-linecap="round"/>
<path d="M27.2044 29.8461C27.5967 28.7262 29.0388 26.6014 31.6689 27.0611" stroke="black" stroke-width="0.757895" stroke-linecap="round"/>
<path d="M51.2655 15.6646C49.6887 23.2241 31.0528 24.2856 27.2971 24.2856C17.4402 25.4086 22.1714 37.2392 23.9813 43.1383C22.5603 43.3278 22.7497 45.033 17.255 31.4856C12.8592 20.6478 25.3087 14.0422 34.5581 11.7999C43.8074 9.55766 47.3476 6.40039 47.3476 6.40039C51.2655 8.01055 52.2013 11.1783 51.2655 15.6646Z" fill="black"/>
<path d="M50.3099 29.6005L47.3127 19.475L49.2147 17.7428C51.2526 24.77 51.3458 28.8505 50.3099 29.6005Z" fill="black"/>
<path d="M26.3371 38.0842C25.2761 32.9306 22.6108 33.8527 20.8424 34.1053L18.9476 25.7684L26.6373 24.159C26.7798 24.1135 26.9322 24.0813 27.095 24.0632L26.6373 24.159C23.1981 25.2567 25.571 34.0665 28.4213 37.7053L26.3371 38.0842Z" fill="black"/>
<path d="M15.914 18.6372C17.59 17.7933 19.5693 18.2818 20.3494 18.6315L18.1192 21.451C18.6943 20.5308 16.8887 19.1917 15.914 18.6372Z" fill="black"/>
<path d="M13.0737 21.8842C15.2716 20.5958 17.4 21.0316 18.1895 21.4105L17.3369 24.3474C17.1095 22.7559 14.4 22.0421 13.0737 21.8842Z" fill="black"/>
<ellipse cx="31.7588" cy="32.2705" rx="1.70526" ry="1.89474" transform="rotate(-6.77646 31.7588 32.2705)" fill="black"/>
<ellipse cx="43.8909" cy="30.3751" rx="1.70526" ry="1.89474" transform="rotate(-6.27568 43.8909 30.3751)" fill="black"/>
<path d="M37.9473 33.902C38.9364 33.5256 40.6613 33.6393 40.5551 35.5528C40.4607 37.2535 38.7159 37.5912 38.16 37.1946" stroke="black" stroke-width="0.757895"/>
<path d="M23.5894 34.1386C23.1479 33.9933 22.6713 33.9159 22.1835 33.9159C20.1953 33.9159 18.5835 35.1475 18.773 37.4212C18.9703 39.7896 20.3847 40.6422 22.373 40.6422C22.5942 40.6422 22.8108 40.6228 23.021 40.5856C23.2503 40.545 23.4721 40.4832 23.6841 40.4025" stroke="black" stroke-width="1.51579"/>
<path d="M23.7789 40.3648C23.3469 40.5434 22.8718 40.6422 22.373 40.6422C20.3847 40.6422 18.9703 39.7896 18.773 37.4212C18.5835 35.1475 20.1953 33.9159 22.1835 33.9159C22.778 33.9159 23.3557 34.0308 23.8736 34.2436L23.7789 40.3648Z" fill="#F9C9B6"/>
<path d="M23.021 35.5265C22.2631 35.1791 20.5957 34.996 19.9894 37.0423" stroke="black" stroke-width="0.757895"/>
<path d="M21.0315 35.6212C21.442 35.9685 22.2252 37.0422 22.0736 38.558" stroke="black" stroke-width="0.757895"/>
<path d="M35.9566 68.1305L36.1894 67.8316L35.9566 68.1306L36.2828 68.3846L36.5075 68.0376L36.5075 68.0376L36.5079 68.037L36.5097 68.0343L36.5174 68.0224L36.5494 67.9742C36.5779 67.9316 36.6206 67.8685 36.6763 67.7879C36.7879 67.6268 36.9517 67.3961 37.1592 67.1204C37.5748 66.5681 38.163 65.8387 38.8556 65.1256C39.5501 64.4106 40.3385 63.7234 41.1532 63.2451C41.9711 62.765 42.7787 62.5167 43.5283 62.6178C51.5693 63.7019 57.4866 67.2635 61.3277 72.5686H9.54462C12.633 67.0091 17.0257 63.4704 24.1474 61.8466C24.4509 61.7774 24.8635 61.7984 25.3794 61.9184C25.89 62.0372 26.4722 62.2458 27.1001 62.5218C28.3556 63.0737 29.7573 63.8785 31.0744 64.7122C32.3896 65.5446 33.6108 66.3997 34.5038 67.0471C34.9501 67.3707 35.3139 67.642 35.5659 67.8323C35.6919 67.9274 35.7899 68.0022 35.8562 68.0531L35.9315 68.1111L35.9505 68.1258L35.9552 68.1295L35.9563 68.1303L35.9566 68.1305Z" fill="#FC909F" stroke="black" stroke-width="0.757895"/>
<path d="M21.9055 62.353L22.8844 58.7091C22.9241 58.5615 23.115 58.5198 23.2181 58.6326C26.0342 61.7142 29.5881 61.5935 30.7676 61.452C30.9278 61.4328 31.0531 61.6081 30.9779 61.7507L28.485 66.4786C28.4468 66.5511 28.3686 66.591 28.2884 66.5743C27.5402 66.4184 23.8125 65.5072 21.9274 62.5012C21.8999 62.4572 21.892 62.4032 21.9055 62.353Z" fill="#FFEDEF" stroke="black" stroke-width="0.757895"/>
<path d="M46.6473 62.3334L44.4531 58.642C44.3786 58.5167 44.195 58.5187 44.1156 58.641C43.0286 60.3152 41.1538 61.0864 40.4983 61.3142C40.3803 61.3552 40.3264 61.4954 40.39 61.6028L42.9484 65.9256C42.9865 65.9901 43.0587 66.0251 43.1307 66.0045C43.5352 65.8894 44.9232 65.3088 46.6448 62.5304C46.6818 62.4707 46.6832 62.3938 46.6473 62.3334Z" fill="#FFEDEF" stroke="black" stroke-width="0.757895"/>
<path d="M32.6842 65.6527L30.9789 61.579L29.6526 64.4211L32.6842 65.6527Z" fill="black" stroke="black" stroke-width="0.757895" stroke-linejoin="round"/>
<path d="M38.6525 65.4633L40.3578 61.3896L41.6841 64.2317L38.6525 65.4633Z" fill="black" stroke="black" stroke-width="0.757895" stroke-linejoin="round"/>
<path d="M25.2947 57.9791L23.021 58.5475L24.9157 59.7791L25.2947 57.9791Z" fill="black" stroke="black" stroke-width="0.757895" stroke-linejoin="round"/>
<path d="M42.2526 57.9791L44.3368 58.5475L43.0105 59.7791L42.2526 57.9791Z" fill="black" stroke="black" stroke-width="0.757895" stroke-linejoin="round"/>
</g>
<defs>
<clipPath id="clip0_330_59554">
<rect width="37.8947" height="60.6316" fill="white" transform="translate(17.0526 8.14746)"/>
</clipPath>
</defs>
</svg>
