<svg width="48" height="48" viewBox="0 0 48 48" fill="none" xmlns="http://www.w3.org/2000/svg">
<g id="Property 1=Behance">
<g id="Behance">
<rect id="Rectangle" width="48" height="48" rx="24" fill="#0057FF"/>
<path id="Vector" d="M18.4324 13.9465C19.3561 13.9465 20.2087 14.0176 20.9902 14.2307C21.7718 14.3728 22.4112 14.657 22.9796 15.0123C23.548 15.3675 23.9743 15.8649 24.2585 16.5043C24.5427 17.1437 24.6848 17.9253 24.6848 18.7779C24.6848 19.7726 24.4716 20.6252 23.9743 21.2646C23.548 21.904 22.8375 22.4724 21.9849 22.8987C23.1927 23.254 24.1164 23.8934 24.6848 24.746C25.2532 25.5986 25.6084 26.6643 25.6084 27.8722C25.6084 28.8669 25.3953 29.7194 25.04 30.4299C24.6848 31.1404 24.1164 31.7799 23.4769 32.2062C22.8375 32.6325 22.0559 32.9877 21.2034 33.2009C20.3508 33.414 19.4982 33.5561 18.6456 33.5561H9.125V13.9465H18.4324ZM17.864 21.904C18.6456 21.904 19.285 21.6909 19.7824 21.3356C20.2797 20.9804 20.4929 20.341 20.4929 19.5594C20.4929 19.1331 20.4218 18.7068 20.2797 18.4226C20.1376 18.1384 19.9245 17.9253 19.6403 17.7121C19.3561 17.57 19.0719 17.4279 18.7166 17.3569C18.3614 17.2858 18.0061 17.2858 17.5799 17.2858H13.459V21.904H17.864ZM18.0772 30.2878C18.5035 30.2878 18.9298 30.2168 19.285 30.1457C19.6403 30.0747 19.9955 29.9326 20.2797 29.7194C20.5639 29.5063 20.7771 29.2932 20.9902 28.9379C21.1323 28.5827 21.2744 28.1564 21.2744 27.659C21.2744 26.6643 20.9902 25.9538 20.4218 25.4565C19.8534 25.0302 19.0719 24.8171 18.1482 24.8171H13.459V30.2878H18.0772ZM31.7897 30.2168C32.3581 30.7852 33.2107 31.0694 34.3475 31.0694C35.129 31.0694 35.8395 30.8562 36.4079 30.501C36.9763 30.0747 37.3315 29.6484 37.4736 29.2221H40.955C40.3866 30.9273 39.534 32.1351 38.3973 32.9167C37.2605 33.6272 35.9105 34.0534 34.2764 34.0534C33.1396 34.0534 32.1449 33.8403 31.2213 33.4851C30.2977 33.1298 29.5872 32.6325 28.9477 31.922C28.3083 31.2825 27.8109 30.501 27.5267 29.5774C27.1715 28.6537 27.0294 27.659 27.0294 26.5222C27.0294 25.4565 27.1715 24.4618 27.5267 23.5382C27.882 22.6145 28.3793 21.833 29.0188 21.1225C29.6582 20.4831 30.4398 19.9147 31.2923 19.5594C32.216 19.2042 33.1396 18.991 34.2764 18.991C35.4842 18.991 36.55 19.2042 37.4736 19.7015C38.3973 20.1989 39.1077 20.7673 39.6761 21.6198C40.2445 22.4014 40.6708 23.325 40.955 24.3197C41.0971 25.3144 41.1682 26.3091 41.0971 27.4459H30.795C30.795 28.5827 31.2213 29.6484 31.7897 30.2168ZM36.2658 22.7566C35.7684 22.2593 34.9869 21.9751 34.0633 21.9751C33.4238 21.9751 32.9265 22.1172 32.5002 22.3303C32.0739 22.5435 31.7897 22.8277 31.5055 23.1119C31.2213 23.3961 31.0792 23.7513 31.0081 24.1066C30.9371 24.4618 30.866 24.746 30.866 25.0302H37.2605C37.1184 23.9645 36.7631 23.254 36.2658 22.7566ZM30.0135 15.2965H37.971V17.2148H30.0135V15.2965Z" fill="white"/>
</g>
</g>
</svg>
