<svg width="48" height="48" viewBox="0 0 48 48" fill="none" xmlns="http://www.w3.org/2000/svg">
<g id="App=Pinterest">
<g id="Pinterest">
<rect id="Rectangle" width="48" height="48" rx="24" fill="#E60023"/>
<path id="Vector" d="M21.5196 34.7933C22.2972 36.2816 24.5765 37.5419 26.9967 37.5419C34.2034 37.5419 39.3922 30.9117 39.3922 22.6793C39.3922 14.7888 32.9497 8.88269 24.6637 8.88269C14.3531 8.88269 8.88269 15.8011 8.88269 23.343C8.88269 26.8492 10.7464 31.2067 13.7296 32.5944C14.1855 32.8089 14.4268 32.7151 14.5274 32.2793C14.6078 31.9441 15.0101 30.3285 15.1911 29.571C15.2581 29.3296 15.1978 29.0682 15.0235 28.8872C14.038 27.6872 13.2469 25.4883 13.2469 23.4369C13.2469 18.1676 17.2358 13.0659 24.0335 13.0659C29.9062 13.0659 34.0156 17.0615 34.0156 22.7866C34.0156 29.2492 30.7508 33.7274 26.5006 33.7274C24.1542 33.7274 22.3978 31.79 22.9609 29.4101C23.638 26.5676 24.9386 23.5039 24.9386 21.4525C24.9386 19.6157 23.9531 18.0872 21.9151 18.0872C19.5151 18.0872 17.5911 20.5676 17.5911 23.886C17.5911 26.0045 18.3084 27.4324 18.3084 27.4324C18.3084 27.4324 15.9419 37.4414 15.5062 39.305C15.0101 41.4503 15.238 44.5274 15.4525 46.4045C15.9419 46.5922 16.4246 46.7799 16.9274 46.9341C17.8994 45.3721 19.4682 42.6235 20.0246 40.4648C20.3196 39.3587 21.5196 34.7933 21.5196 34.7933Z" fill="white"/>
</g>
</g>
</svg>
