<svg width="100" height="111" viewBox="0 0 100 111" fill="none" xmlns="http://www.w3.org/2000/svg">
<g clip-path="url(#clip0_204_1209)">
<path d="M0 0V9.99338V10.0795H8.44268C8.44268 10.0795 8.44268 10.0795 8.44268 9.99338V7.49503H2.32604V2.58449H8.44268C8.44268 2.58449 8.44268 2.58449 8.44268 2.49834V0H0ZM3.10139 16.7131V23.3466H5.34129V19.2976H6.11664V24.2081H2.32604V16.7131H2.23989H0V26.7064H8.44268V16.7131H3.10139ZM0 33.4261V36.0106C0 36.0106 0 36.0106 0 36.0968H8.44268V36.0106V33.4261H0ZM3.10139 42.7303H3.01524V50.2253H2.32604V42.7303H2.23989H0V52.7237H5.34129H5.42744V45.2286H6.11664V52.7237H6.20279H8.44268V42.7303H3.10139ZM6.20279 59.3572L6.11664 59.4434V66.8523H5.42744V59.4434L5.34129 59.3572H3.10139V59.4434V66.8523H2.32604V59.4434L2.23989 59.3572H0V59.4434V69.4367H8.44268V59.4434V59.3572H6.20279ZM4.56594 76.0703L3.61829 76.1564C2.92909 76.2426 2.41219 76.4149 1.8953 76.7595C1.3784 77.1041 1.0338 77.4487 0.603049 77.9656C0.258449 78.5686 0 79.1717 0 79.7747V86.1498H8.44268V79.947C8.44268 79.6886 8.35653 79.344 8.27038 79.1717C7.92578 77.9656 7.23658 77.1902 6.37509 76.6733C5.59974 76.3287 5.08284 76.0703 4.56594 76.0703ZM2.32604 80.7224C2.32604 80.4639 2.32604 80.2055 2.41219 79.947C2.84294 79.0855 3.44599 78.7409 4.22134 78.7409C4.39364 78.7409 4.56594 78.7409 4.82439 78.8271C5.68589 79.1717 6.11664 79.8609 6.11664 80.7224V83.5653H2.32604V80.7224Z" fill="#1A56A2"/>
<path fill-rule="evenodd" clip-rule="evenodd" d="M27.946 77.1731V81.4824L42.6455 96.1813V66.8628H30.5998L27.946 73.498H13.246V0H27.946V36.7493L42.6455 0H57.345L72.0445 36.7493V0H86.744V110.247H72.0445V73.498L69.391 66.8628H57.345V75.3356H66.5323V90.035H57.345V95.5478H66.5323V110.247H35.9223L27.946 102.27V110.247H13.246V77.1731H27.946ZM49.9953 18.3746L36.4795 52.1633H63.5105L49.9953 18.3746Z" fill="#1A56A2"/>
<path d="M91.5473 33C91.5473 33 91.5473 33 91.5473 33.0768V42.9896C91.5473 43.0664 91.5473 43.0664 91.5473 43.0664H100C100 43.0664 100 43.0664 100 42.9896V40.5306V40.4538H93.8526V39.3011H100C100 39.3011 100 39.3011 100 39.2243V36.7653H93.8526V35.5358H100V33.0768C100 33 100 33 100 33H91.5473ZM91.5473 49.6749C91.5473 49.6749 91.5473 49.6749 91.5473 49.7517V59.7413H100V49.7517V49.6749H91.5473ZM93.8526 52.2876H97.6947V57.2055H93.8526V52.2876ZM91.5473 66.4266V68.8856C91.5473 68.9625 91.5473 68.9625 91.5473 68.9625H94.5442C94.5442 69.0393 94.0831 69.7309 93.161 71.1909C92.0852 73.0351 91.5473 73.8804 91.5473 73.9572V76.4162H92.6231C92.6999 76.3394 93.3147 75.2636 94.621 73.1888V76.4162H100V66.4266H91.5473ZM96.9263 68.9625H97.6947V73.8804H96.9263V68.9625ZM91.5473 83.1015V85.6374H94.5442C94.5442 85.7142 94.0831 86.4826 93.161 87.9426C92.0852 89.71 91.5473 90.6321 91.5473 90.6321V93.0911C91.5473 93.168 91.5473 93.1679 91.5473 93.1679H92.6231L92.6999 93.0911C93.9294 91.0164 94.5442 89.9406 94.621 89.8637H96.9263C96.9263 89.8637 97.08 90.0174 97.3105 90.4016C98.3095 92.169 98.8474 93.0911 98.9242 93.1679H100C100 93.1679 100 93.168 100 93.0911V90.6321C99.8463 90.3248 98.8474 88.7111 97.0031 85.7142V85.6374H100V83.1015H91.5473ZM94.621 99.7764C94.621 99.7764 94.621 99.7764 94.621 99.8533V107.307H93.8526V99.8533C93.8526 99.7764 93.8526 99.7764 93.7757 99.7764H91.5473C91.5473 99.7764 91.5473 99.7764 91.5473 99.8533V109.766C91.5473 109.843 91.5473 109.843 91.5473 109.843H96.9263C96.9263 109.843 96.9263 109.843 96.9263 109.766V102.389H97.6947V109.766C97.6947 109.843 97.6947 109.843 97.7716 109.843H100C100 109.843 100 109.843 100 109.766V99.8533C100 99.7764 100 99.7764 100 99.7764H94.621Z" fill="#1A56A2"/>
</g>
<defs>
<clipPath id="clip0_204_1209">
<rect width="100" height="110.247" fill="white"/>
</clipPath>
</defs>
</svg>
