<svg width="90" height="90" viewBox="0 0 90 90" fill="none" xmlns="http://www.w3.org/2000/svg">
<rect width="90" height="90" rx="20.0077" fill="white"/>
<path d="M26.8267 38.3943L19.0382 44.8847V70.8462H70.9613V44.8847L63.1728 38.3943V63.0577H26.8267V38.3943Z" fill="#DAE5F2"/>
<path d="M26.8267 48.5326V38.3943L38.9168 28.3192L44.9998 33.3883L26.8267 48.5326Z" fill="#DAE5F2"/>
<path d="M63.1728 48.5326V38.3943L51.0827 28.3192L44.9998 33.3883L63.1728 48.5326Z" fill="#DAE5F2"/>
<path d="M44.9998 33.3884L51.0828 28.3192L44.9998 23.2501L38.9168 28.3192L44.9998 33.3884Z" fill="#DAE5F2"/>
<path d="M26.8276 26.7116H36.9885L38.9177 28.3192L45.0007 23.25L39.8084 18.9231H19.0391V44.8846L26.8276 38.3943V26.7116Z" fill="#1A56A2"/>
<path d="M44.9999 33.3883L51.0829 28.3192L44.9999 23.25L38.9169 28.3192L44.9999 33.3883Z" fill="#1A56A2"/>
<path d="M53.012 26.7116H70.9614V18.9231H50.1922L44.9999 23.25L51.0829 28.3192L53.012 26.7116Z" fill="#1A56A2"/>
<path d="M70.9614 26.7116H63.1729V38.3943L70.9614 44.8847V26.7116Z" fill="#1A56A2"/>
<g opacity="0.75">
<path d="M63.173 48.5326V38.3943L51.0829 28.3192L44.9999 33.3883L63.173 48.5326Z" fill="#21A4CC"/>
<path d="M63.173 38.3942L70.9614 44.8846V70.8461L63.173 70.8461V38.3942Z" fill="#21A4CC"/>
<path d="M70.9614 26.7116H63.173V38.3943L70.9614 44.8847V26.7116Z" fill="#21A4CC"/>
</g>
</svg>
