<svg width="208" height="196" viewBox="0 0 208 196" fill="none" xmlns="http://www.w3.org/2000/svg">
<rect x="2.25" y="0.5" width="203.5" height="422" rx="25" fill="url(#paint0_linear_257_46365)"/>
<g clip-path="url(#clip0_257_46365)">
<rect x="10.25" y="8.5" width="187.5" height="406" rx="18" fill="#EEEEEE"/>
<g clip-path="url(#clip1_257_46365)">
<g clip-path="url(#clip2_257_46365)">
<rect width="187.5" height="22" transform="translate(10.75 8.5)" fill="#F9F9F9"/>
<path d="M29.4103 22.6282C30.7543 22.6282 31.5527 21.5771 31.5527 19.7974C31.5527 19.1272 31.4245 18.5632 31.1791 18.1274C30.8239 17.45 30.2123 17.0837 29.4396 17.0837C28.2897 17.0837 27.4767 17.8564 27.4767 18.9404C27.4767 19.9585 28.2092 20.6982 29.2162 20.6982C29.8351 20.6982 30.3369 20.4089 30.5859 19.9072H30.5969C30.5969 19.9072 30.6115 19.9072 30.6152 19.9072C30.6225 19.9072 30.6481 19.9072 30.6481 19.9072C30.6481 21.1157 30.1904 21.8372 29.4177 21.8372C28.9636 21.8372 28.612 21.5881 28.4911 21.189H27.55C27.7075 22.0569 28.4435 22.6282 29.4103 22.6282ZM29.4433 19.9475C28.8354 19.9475 28.4033 19.5154 28.4033 18.9111C28.4033 18.3215 28.8574 17.8711 29.447 17.8711C30.0366 17.8711 30.4907 18.3289 30.4907 18.9258C30.4907 19.5154 30.0475 19.9475 29.4433 19.9475Z" fill="black"/>
<path d="M33.0982 22.5769C33.4461 22.5769 33.6842 22.3279 33.6842 21.9983C33.6842 21.665 33.4461 21.4197 33.0982 21.4197C32.754 21.4197 32.5123 21.665 32.5123 21.9983C32.5123 22.3279 32.754 22.5769 33.0982 22.5769ZM33.0982 19.8303C33.4461 19.8303 33.6842 19.585 33.6842 19.2554C33.6842 18.9221 33.4461 18.6768 33.0982 18.6768C32.754 18.6768 32.5123 18.9221 32.5123 19.2554C32.5123 19.585 32.754 19.8303 33.0982 19.8303Z" fill="black"/>
<path d="M37.112 22.5H38.0166V21.5149H38.7307V20.7166H38.0166V17.2156H36.6836C35.7497 18.6218 35.0063 19.7974 34.5303 20.6726V21.5149H37.112V22.5ZM35.4055 20.6836C36.0207 19.5996 36.5701 18.7317 37.0754 17.9846H37.1267V20.7385H35.4055V20.6836Z" fill="black"/>
<path d="M40.745 22.5H41.6898V17.2156H40.7487L39.3681 18.1824V19.0906L40.6827 18.1677H40.745V22.5Z" fill="black"/>
<path d="M49.75 7.5H159.25V7.5C158.197 7.80134 157.459 8.74762 157.423 9.84223L157.408 10.2809V10.2809C157.408 17.0293 151.938 22.5 145.189 22.5H63.8109C57.0624 22.5 51.5917 17.0293 51.5917 10.2809V10.2809L51.5773 9.84223C51.5412 8.74762 50.8029 7.80134 49.75 7.5V7.5Z" fill="black"/>
<path opacity="0.35" d="M180.583 17.4167H188.917C189.515 17.4167 190 17.9017 190 18.5V21.5C190 22.0983 189.515 22.5834 188.917 22.5834H180.583C179.985 22.5834 179.5 22.0983 179.5 21.5V18.5C179.5 17.9017 179.985 17.4167 180.583 17.4167Z" stroke="black" stroke-width="0.5"/>
<path opacity="0.4" d="M190.75 19V21C191.152 20.8306 191.414 20.4366 191.414 20C191.414 19.5634 191.152 19.1694 190.75 19" fill="black"/>
<path d="M180.25 18.8334C180.25 18.4652 180.548 18.1667 180.917 18.1667H188.583C188.952 18.1667 189.25 18.4652 189.25 18.8334V21.1667C189.25 21.5349 188.952 21.8334 188.583 21.8334H180.917C180.548 21.8334 180.25 21.5349 180.25 21.1667V18.8334Z" fill="black"/>
<path fill-rule="evenodd" clip-rule="evenodd" d="M172.915 18.304C174.023 18.3041 175.089 18.7298 175.892 19.4932C175.952 19.5521 176.049 19.5514 176.108 19.4915L176.686 18.9082C176.716 18.8778 176.733 18.8367 176.733 18.7939C176.733 18.7511 176.716 18.7102 176.685 18.6802C174.577 16.6604 171.253 16.6604 169.145 18.6802C169.114 18.7102 169.097 18.7511 169.097 18.7939C169.097 18.8367 169.113 18.8778 169.143 18.9082L169.722 19.4915C169.781 19.5515 169.878 19.5522 169.938 19.4932C170.741 18.7297 171.807 18.304 172.915 18.304ZM172.915 20.2019C173.524 20.2018 174.111 20.4281 174.562 20.8367C174.623 20.8947 174.719 20.8934 174.779 20.8339L175.356 20.2505C175.387 20.2199 175.403 20.1784 175.403 20.1353C175.403 20.0922 175.385 20.051 175.354 20.021C173.98 18.7428 171.852 18.7428 170.478 20.021C170.447 20.051 170.429 20.0922 170.429 20.1353C170.428 20.1785 170.445 20.22 170.475 20.2505L171.053 20.8339C171.112 20.8934 171.208 20.8947 171.269 20.8367C171.72 20.4284 172.307 20.2021 172.915 20.2019ZM174.072 21.4788C174.073 21.522 174.056 21.5637 174.025 21.594L173.026 22.6019C172.997 22.6315 172.957 22.6481 172.915 22.6481C172.874 22.6481 172.834 22.6315 172.804 22.6019L171.805 21.594C171.775 21.5637 171.758 21.522 171.759 21.4787C171.759 21.4355 171.778 21.3945 171.81 21.3655C172.448 20.8261 173.382 20.8261 174.02 21.3655C174.052 21.3945 174.071 21.4355 174.072 21.4788Z" fill="black"/>
<path fill-rule="evenodd" clip-rule="evenodd" d="M166.083 17.3333H165.583C165.307 17.3333 165.083 17.5572 165.083 17.8333V22.1666C165.083 22.4428 165.307 22.6666 165.583 22.6666H166.083C166.359 22.6666 166.583 22.4428 166.583 22.1666V17.8333C166.583 17.5572 166.359 17.3333 166.083 17.3333ZM163.25 18.5H163.75C164.026 18.5 164.25 18.7238 164.25 19V22.1666C164.25 22.4428 164.026 22.6666 163.75 22.6666H163.25C162.974 22.6666 162.75 22.4428 162.75 22.1666V19C162.75 18.7238 162.974 18.5 163.25 18.5ZM161.417 19.6667H160.917C160.64 19.6667 160.417 19.8905 160.417 20.1667V22.1667C160.417 22.4428 160.64 22.6667 160.917 22.6667H161.417C161.693 22.6667 161.917 22.4428 161.917 22.1667V20.1667C161.917 19.8905 161.693 19.6667 161.417 19.6667ZM159.083 20.6667H158.583C158.307 20.6667 158.083 20.8905 158.083 21.1667V22.1667C158.083 22.4428 158.307 22.6667 158.583 22.6667H159.083C159.359 22.6667 159.583 22.4428 159.583 22.1667V21.1667C159.583 20.8905 159.359 20.6667 159.083 20.6667Z" fill="black"/>
</g>
<g clip-path="url(#clip3_257_46365)">
<rect width="187.5" height="343.5" transform="translate(10.75 30.5)" fill="#F9F9F9"/>
<rect width="187.5" height="51" transform="translate(10.75 30.5)" fill="#F9F9F9"/>
<path fill-rule="evenodd" clip-rule="evenodd" d="M28.3611 38H29.25V45.5H28.3611H22.1389L21.25 45.5V44.6176V38H22.1389V44.6176L28.3611 44.6176V38Z" fill="#1A56A2"/>
<path d="M20.25 39L25.25 36.5L30.25 39" stroke="#1A56A2"/>
<g clip-path="url(#clip4_257_46365)">
<rect x="50.75" y="35.5" width="1" height="11" fill="#1A56A2"/>
<rect x="56.75" y="40.5" width="1" height="11" transform="rotate(90 56.75 40.5)" fill="#1A56A2"/>
</g>
<g clip-path="url(#clip5_257_46365)">
<path d="M178.827 41L181.289 36.7368L186.211 36.7368L188.673 41L186.211 45.2631H181.289L178.827 41Z" stroke="#1A56A2"/>
<circle cx="183.75" cy="41.2368" r="1.5" stroke="#1A56A2"/>
</g>
<path d="M20.8047 71.5H23.459V66.1562H29.1719V71.5H31.8262V58.8174H29.1719V63.9678H23.459V58.8174H20.8047V71.5ZM38.04 71.6934C40.8877 71.6934 42.707 69.8652 42.707 66.7891V66.7715C42.707 63.7217 40.8525 61.8848 38.0312 61.8848C35.2188 61.8848 33.373 63.7393 33.373 66.7715V66.7891C33.373 69.8564 35.1748 71.6934 38.04 71.6934ZM38.0488 69.6807C36.7832 69.6807 35.9834 68.6348 35.9834 66.7891V66.7715C35.9834 64.9521 36.792 63.8975 38.0312 63.8975C39.2793 63.8975 40.0967 64.9521 40.0967 66.7715V66.7891C40.0967 68.626 39.2969 69.6807 38.0488 69.6807ZM44.0342 71.5H46.6006V65.8135C46.6006 64.75 47.2598 64.0117 48.2354 64.0117C49.1846 64.0117 49.7559 64.6094 49.7559 65.6201V71.5H52.2256V65.7695C52.2256 64.7236 52.8672 64.0117 53.8428 64.0117C54.8359 64.0117 55.3809 64.6094 55.3809 65.6992V71.5H57.9473V65.0576C57.9473 63.1592 56.708 61.8848 54.8623 61.8848C53.4824 61.8848 52.3574 62.6406 51.9355 63.8271H51.8828C51.5664 62.5879 50.6084 61.8848 49.29 61.8848C48.0244 61.8848 47.04 62.5879 46.6533 63.6602H46.6006V62.0781H44.0342V71.5ZM63.8623 71.6934C66.5518 71.6934 67.8525 70.1025 68.1426 68.7139L68.1689 68.6172H65.8135L65.7959 68.6699C65.6113 69.1973 64.9697 69.7773 63.915 69.7773C62.6055 69.7773 61.7881 68.8984 61.7617 67.3955H68.248V66.6045C68.248 63.7568 66.5166 61.8848 63.7568 61.8848C60.9971 61.8848 59.2305 63.8008 59.2305 66.7979V66.8066C59.2305 69.8213 60.9795 71.6934 63.8623 71.6934ZM63.8008 63.8008C64.8643 63.8008 65.6289 64.4775 65.7871 65.7783H61.7881C61.9551 64.5039 62.7461 63.8008 63.8008 63.8008Z" fill="#656667"/>
<rect width="187.5" height="21" transform="translate(10.75 81.5)" fill="#F9F9F9"/>
<path d="M20.6289 97.5H22.8408V93.3398H27.1401V91.5894H22.8408V88.7549H27.5503V86.9312H20.6289V97.5ZM30.6777 97.6245C31.7104 97.6245 32.5454 97.1338 32.9922 96.3281H33.0361V97.5H35.1748V92.1167C35.1748 90.5347 33.8638 89.4873 31.835 89.4873C29.7622 89.4873 28.5171 90.5273 28.3999 91.9775L28.3926 92.0654H30.3481L30.3628 91.9995C30.4653 91.4941 30.9487 91.1206 31.7471 91.1206C32.582 91.1206 33.0361 91.5527 33.0361 92.2485V92.7319L31.0952 92.8491C29.147 92.9736 28.041 93.8086 28.041 95.2368V95.2515C28.041 96.6357 29.103 97.6245 30.6777 97.6245ZM30.1577 95.1416V95.127C30.1577 94.5703 30.5898 94.2188 31.4175 94.1675L33.0361 94.0649V94.6289C33.0361 95.4492 32.333 96.0645 31.3735 96.0645C30.6338 96.0645 30.1577 95.7202 30.1577 95.1416ZM38.5879 97.5H40.9976L43.6929 89.6484H41.459L39.8403 95.6104H39.7964L38.1558 89.6484H35.8706L38.5879 97.5ZM47.7651 97.6611C50.1382 97.6611 51.6543 96.1377 51.6543 93.5742V93.5596C51.6543 91.0181 50.1089 89.4873 47.7578 89.4873C45.4141 89.4873 43.876 91.0327 43.876 93.5596V93.5742C43.876 96.1304 45.3774 97.6611 47.7651 97.6611ZM47.7725 95.9839C46.7178 95.9839 46.0513 95.1123 46.0513 93.5742V93.5596C46.0513 92.0435 46.7251 91.1646 47.7578 91.1646C48.7979 91.1646 49.479 92.0435 49.479 93.5596V93.5742C49.479 95.105 48.8125 95.9839 47.7725 95.9839ZM52.7603 97.5H54.8989V93.1055C54.8989 91.9629 55.5142 91.333 56.5688 91.333C56.8765 91.333 57.1694 91.377 57.3452 91.4502V89.5679C57.1841 89.5239 56.9644 89.4873 56.73 89.4873C55.8145 89.4873 55.1772 90.0513 54.9429 91.0181H54.8989V89.6484H52.7603V97.5ZM59.3374 88.6377C59.9819 88.6377 60.48 88.1323 60.48 87.5244C60.48 86.9165 59.9819 86.4111 59.3374 86.4111C58.6929 86.4111 58.1948 86.9165 58.1948 87.5244C58.1948 88.1323 58.6929 88.6377 59.3374 88.6377ZM58.2681 97.5H60.4067V89.6484H58.2681V97.5ZM64.9624 97.6611C65.4092 97.6611 65.7534 97.6172 65.9951 97.5806V96.0132C65.8633 96.0278 65.7241 96.0498 65.5337 96.0498C64.8892 96.0498 64.5596 95.8008 64.5596 95.0684V91.2598H65.9951V89.6484H64.5596V87.7295H62.3989V89.6484H61.3076V91.2598H62.3989V95.3027C62.3989 96.9873 63.2192 97.6611 64.9624 97.6611ZM70.6313 97.6611C72.8726 97.6611 73.9565 96.3354 74.1982 95.1782L74.2202 95.0977H72.2573L72.2427 95.1416C72.0889 95.5811 71.5542 96.0645 70.6753 96.0645C69.584 96.0645 68.9028 95.332 68.8809 94.0796H74.2861V93.4204C74.2861 91.0474 72.8433 89.4873 70.5435 89.4873C68.2437 89.4873 66.7715 91.084 66.7715 93.5815V93.5889C66.7715 96.1011 68.229 97.6611 70.6313 97.6611ZM70.5801 91.084C71.4663 91.084 72.1035 91.6479 72.2354 92.7319H68.9028C69.042 91.6699 69.7012 91.084 70.5801 91.084Z" fill="#656667"/>
<g clip-path="url(#clip6_257_46365)">
<circle cx="34.25" cy="122.965" r="14" stroke="#1A56A2"/>
<path fill-rule="evenodd" clip-rule="evenodd" d="M36.5 124.873C37.4067 124.24 38 123.189 38 122C38 120.067 36.433 118.5 34.5 118.5C32.567 118.5 31 120.067 31 122C31 123.189 31.5933 124.24 32.5 124.873V126.032C31.0183 125.296 30 123.767 30 122C30 119.515 32.0147 117.5 34.5 117.5C36.9853 117.5 39 119.515 39 122C39 123.767 37.9817 125.296 36.5 126.032V124.873Z" fill="#1A56A2"/>
<path fill-rule="evenodd" clip-rule="evenodd" d="M32.5 124.873V127H33.5V125.355C33.1388 125.248 32.802 125.083 32.5 124.873Z" fill="#1A56A2"/>
<path fill-rule="evenodd" clip-rule="evenodd" d="M35.5 125.355V127H36.5V124.873C36.198 125.083 35.8612 125.248 35.5 125.355Z" fill="#1A56A2"/>
<rect x="32.5" y="127" width="1" height="4" transform="rotate(-90 32.5 127)" fill="#1A56A2"/>
<rect x="33" y="128.5" width="1" height="3" transform="rotate(-90 33 128.5)" fill="#1A56A2"/>
<path d="M27.2456 145H29.4429V144.529H27.7925V141.477H27.2456V145ZM30.3511 141.875C30.5317 141.875 30.6831 141.726 30.6831 141.545C30.6831 141.362 30.5317 141.213 30.3511 141.213C30.168 141.213 30.019 141.362 30.019 141.545C30.019 141.726 30.168 141.875 30.3511 141.875ZM30.085 145H30.6123V142.349H30.085V145ZM32.5044 145.935C33.2563 145.935 33.7324 145.549 33.7324 144.946V142.349H33.2051V142.783H33.1733C33.0195 142.485 32.7314 142.302 32.3604 142.302C31.6719 142.302 31.2495 142.837 31.2495 143.594V143.599C31.2495 144.346 31.6694 144.871 32.3506 144.871C32.7144 144.871 33.0073 144.709 33.1685 144.421H33.2075V144.944C33.2075 145.305 32.9487 145.51 32.5117 145.51C32.1528 145.51 31.938 145.381 31.894 145.198L31.8916 145.193H31.3569L31.3521 145.198C31.4155 145.64 31.8306 145.935 32.5044 145.935ZM32.4971 144.434C32.0454 144.434 31.7915 144.089 31.7915 143.596V143.591C31.7915 143.098 32.0454 142.751 32.4971 142.751C32.9438 142.751 33.2173 143.098 33.2173 143.591V143.596C33.2173 144.092 32.9463 144.434 32.4971 144.434ZM34.5186 145H35.0483V143.445C35.0483 143.018 35.29 142.751 35.6782 142.751C36.0664 142.751 36.2495 142.969 36.2495 143.408V145H36.7769V143.284C36.7769 142.651 36.4497 142.297 35.8564 142.297C35.4707 142.297 35.2168 142.468 35.0874 142.751H35.0483V141.309H34.5186V145ZM38.5176 145.017C38.6201 145.017 38.7178 145.005 38.8032 144.99V144.568C38.73 144.575 38.6836 144.578 38.603 144.578C38.3418 144.578 38.2344 144.46 38.2344 144.175V142.766H38.8032V142.349H38.2344V141.68H37.6948V142.349H37.2798V142.766H37.6948V144.302C37.6948 144.812 37.9341 145.017 38.5176 145.017ZM40.3462 145.051C40.9761 145.051 41.4448 144.717 41.4448 144.226V144.221C41.4448 143.838 41.2007 143.621 40.6904 143.501L40.2705 143.406C39.9727 143.335 39.8506 143.232 39.8506 143.066V143.062C39.8506 142.849 40.0605 142.705 40.3511 142.705C40.6489 142.705 40.8369 142.844 40.8882 143.03V143.035H41.3936V143.032C41.3472 142.6 40.959 142.297 40.3535 142.297C39.7529 142.297 39.3232 142.629 39.3232 143.091V143.093C39.3232 143.481 39.5552 143.708 40.0557 143.823L40.478 143.921C40.7856 143.992 40.9102 144.104 40.9102 144.27V144.275C40.9102 144.492 40.6831 144.641 40.356 144.641C40.041 144.641 39.8481 144.507 39.7822 144.307L39.7798 144.304H39.25V144.307C39.3013 144.751 39.7065 145.051 40.3462 145.051Z" fill="#656667"/>
<path d="M32.751 151.085C33.769 151.085 34.394 150.368 34.394 149.24V149.235C34.394 148.104 33.7642 147.392 32.751 147.392C31.7402 147.392 31.1055 148.102 31.1055 149.235V149.24C31.1055 150.37 31.7256 151.085 32.751 151.085ZM32.751 150.602C32.0723 150.602 31.6646 150.065 31.6646 149.24V149.235C31.6646 148.402 32.0845 147.875 32.751 147.875C33.4175 147.875 33.835 148.402 33.835 149.235V149.24C33.835 150.065 33.4199 150.602 32.751 150.602ZM35.0752 151H35.605V149.445C35.605 149.018 35.8467 148.751 36.2349 148.751C36.623 148.751 36.8062 148.969 36.8062 149.408V151H37.3335V149.284C37.3335 148.651 37.0063 148.297 36.4131 148.297C36.0273 148.297 35.7734 148.468 35.644 148.751H35.605V148.349H35.0752V151Z" fill="#D4D1CD"/>
<circle cx="72.25" cy="122.965" r="14" stroke="#1A56A2"/>
<rect x="67.5" y="118" width="10" height="10" stroke="#1A56A2"/>
<rect x="69.5" y="120" width="6" height="6" stroke="#1A56A2"/>
<rect x="71" y="122.5" width="1" height="2" fill="#1A56A2"/>
<rect x="73" y="122.5" width="1" height="2" fill="#1A56A2"/>
<path d="M65.7241 145.085C66.5444 145.085 67.0693 144.666 67.0693 143.992V143.989C67.0693 143.467 66.7666 143.169 66.0269 143.01L65.6436 142.925C65.187 142.827 65.0015 142.656 65.0015 142.395V142.393C65.0015 142.061 65.3066 141.868 65.7192 141.868C66.1465 141.865 66.4224 142.075 66.4688 142.363L66.4736 142.395H67.0034L67.001 142.361C66.9619 141.814 66.4736 141.392 65.7266 141.392C64.9795 141.392 64.4521 141.812 64.4497 142.419V142.422C64.4497 142.942 64.7573 143.274 65.4727 143.425L65.8584 143.508C66.3247 143.608 66.5151 143.784 66.5151 144.055V144.058C66.5151 144.385 66.1953 144.609 65.7461 144.609C65.2749 144.609 64.9355 144.404 64.9062 144.084L64.9038 144.058H64.3667L64.3691 144.089C64.418 144.683 64.9282 145.085 65.7241 145.085ZM68.2388 145H68.7783L69.3252 143.022H69.3667L69.916 145H70.4604L71.1904 142.349H70.6655L70.1919 144.395H70.1504L69.6035 142.349H69.1006L68.5537 144.395H68.5146L68.0386 142.349H67.5063L68.2388 145ZM72.0083 141.875C72.189 141.875 72.3403 141.726 72.3403 141.545C72.3403 141.362 72.189 141.213 72.0083 141.213C71.8252 141.213 71.6763 141.362 71.6763 141.545C71.6763 141.726 71.8252 141.875 72.0083 141.875ZM71.7422 145H72.2695V142.349H71.7422V145ZM74.042 145.017C74.1445 145.017 74.2422 145.005 74.3276 144.99V144.568C74.2544 144.575 74.208 144.578 74.1274 144.578C73.8662 144.578 73.7588 144.46 73.7588 144.175V142.766H74.3276V142.349H73.7588V141.68H73.2192V142.349H72.8042V142.766H73.2192V144.302C73.2192 144.812 73.4585 145.017 74.042 145.017ZM76.0317 145.051C76.6885 145.051 77.0669 144.697 77.1621 144.182L77.167 144.16H76.6592L76.6543 144.172C76.5688 144.458 76.3638 144.609 76.0317 144.609C75.5947 144.609 75.3237 144.253 75.3237 143.667V143.662C75.3237 143.091 75.5898 142.739 76.0317 142.739C76.3833 142.739 76.5981 142.935 76.6567 143.196L76.6592 143.203L77.167 143.201V143.188C77.0938 142.673 76.6958 142.297 76.0293 142.297C75.2554 142.297 74.7842 142.822 74.7842 143.662V143.667C74.7842 144.524 75.2578 145.051 76.0317 145.051ZM77.792 145H78.3218V143.445C78.3218 143.018 78.5635 142.751 78.9517 142.751C79.3398 142.751 79.5229 142.969 79.5229 143.408V145H80.0503V143.284C80.0503 142.651 79.7231 142.297 79.1299 142.297C78.7441 142.297 78.4902 142.468 78.3608 142.751H78.3218V141.309H77.792V145Z" fill="#656667"/>
<path d="M70.751 151.085C71.769 151.085 72.394 150.368 72.394 149.24V149.235C72.394 148.104 71.7642 147.392 70.751 147.392C69.7402 147.392 69.1055 148.102 69.1055 149.235V149.24C69.1055 150.37 69.7256 151.085 70.751 151.085ZM70.751 150.602C70.0723 150.602 69.6646 150.065 69.6646 149.24V149.235C69.6646 148.402 70.0845 147.875 70.751 147.875C71.4175 147.875 71.835 148.402 71.835 149.235V149.24C71.835 150.065 71.4199 150.602 70.751 150.602ZM73.0752 151H73.605V149.445C73.605 149.018 73.8467 148.751 74.2349 148.751C74.623 148.751 74.8062 148.969 74.8062 149.408V151H75.3335V149.284C75.3335 148.651 75.0063 148.297 74.4131 148.297C74.0273 148.297 73.7734 148.468 73.644 148.751H73.605V148.349H73.0752V151Z" fill="#D4D1CD"/>
<circle cx="110.25" cy="122.965" r="14" stroke="#1A56A2"/>
<circle cx="107" cy="120" r="1.5" stroke="#1A56A2"/>
<circle cx="107" cy="125" r="1.5" stroke="#1A56A2"/>
<circle cx="113" cy="125" r="2.5" stroke="#1A56A2"/>
<rect x="106.5" y="121" width="1" height="3" fill="#1A56A2"/>
<rect x="111" y="124.5" width="1" height="3" transform="rotate(90 111 124.5)" fill="#1A56A2"/>
<rect x="113.5" y="123" width="1" height="3" transform="rotate(-180 113.5 123)" fill="#1A56A2"/>
<path d="M105.731 145H106.278V143.44H108.087V145H108.631V141.477H108.087V142.966H106.278V141.477H105.731V145ZM110.338 145.051C110.724 145.051 110.992 144.885 111.119 144.6H111.161V145H111.688V142.349H111.161V143.904C111.161 144.331 110.934 144.597 110.509 144.597C110.121 144.597 109.959 144.38 109.959 143.94V142.349H109.43V144.065C109.43 144.692 109.74 145.051 110.338 145.051ZM113.861 145.044C114.53 145.044 114.959 144.509 114.959 143.677V143.672C114.959 142.832 114.535 142.302 113.861 142.302C113.497 142.302 113.187 142.483 113.045 142.769H113.006V141.309H112.477V145H113.006V144.583H113.045C113.199 144.873 113.49 145.044 113.861 145.044ZM113.712 144.592C113.27 144.592 112.997 144.243 112.997 143.677V143.672C112.997 143.105 113.27 142.756 113.712 142.756C114.154 142.756 114.42 143.103 114.42 143.672V143.677C114.42 144.246 114.154 144.592 113.712 144.592Z" fill="#656667"/>
<path d="M100.038 151H100.611L100.931 150.048H102.279L102.596 151H103.172L101.9 147.477H101.31L100.038 151ZM101.583 148.095H101.625L102.132 149.608H101.078L101.583 148.095ZM104.579 151.017C104.681 151.017 104.779 151.005 104.864 150.99V150.568C104.791 150.575 104.745 150.578 104.664 150.578C104.403 150.578 104.295 150.46 104.295 150.175V148.766H104.864V148.349H104.295V147.68H103.756V148.349H103.341V148.766H103.756V150.302C103.756 150.812 103.995 151.017 104.579 151.017ZM106.91 151H107.457V149.44H109.266V151H109.811V147.477H109.266V148.966H107.457V147.477H106.91V151ZM111.756 151.051C112.533 151.051 113.009 150.531 113.009 149.677V149.672C113.009 148.817 112.53 148.297 111.756 148.297C110.98 148.297 110.501 148.82 110.501 149.672V149.677C110.501 150.531 110.978 151.051 111.756 151.051ZM111.756 150.609C111.3 150.609 111.043 150.265 111.043 149.677V149.672C111.043 149.083 111.3 148.739 111.756 148.739C112.21 148.739 112.469 149.083 112.469 149.672V149.677C112.469 150.263 112.21 150.609 111.756 150.609ZM113.641 151H114.171V149.372C114.171 149.025 114.408 148.751 114.728 148.751C115.04 148.751 115.238 148.942 115.238 149.245V151H115.765V149.323C115.765 149.003 115.987 148.751 116.324 148.751C116.671 148.751 116.837 148.932 116.837 149.298V151H117.364V149.171C117.364 148.62 117.052 148.297 116.517 148.297C116.148 148.297 115.843 148.485 115.709 148.771H115.667C115.55 148.485 115.294 148.297 114.933 148.297C114.586 148.297 114.327 148.466 114.21 148.756H114.171V148.349H113.641V151ZM119.217 151.051C119.896 151.051 120.262 150.661 120.35 150.312L120.355 150.29L119.845 150.292L119.835 150.312C119.771 150.448 119.569 150.617 119.229 150.617C118.792 150.617 118.514 150.321 118.504 149.813H120.384V149.628C120.384 148.832 119.93 148.297 119.19 148.297C118.451 148.297 117.972 148.852 117.972 149.679V149.682C117.972 150.521 118.441 151.051 119.217 151.051ZM119.193 148.732C119.552 148.732 119.818 148.961 119.859 149.435H118.512C118.558 148.979 118.832 148.732 119.193 148.732Z" fill="#D4D1CD"/>
<circle cx="148.25" cy="122.965" r="14" stroke="#D4D1CD"/>
<rect x="143.5" y="119.202" width="10" height="5" stroke="#D4D1CD"/>
<rect x="144.5" y="122.202" width="8" height="1" fill="#D4D1CD"/>
<rect x="144.5" y="120.202" width="2" height="1" fill="#D4D1CD"/>
<rect x="148.758" y="127.039" width="2" height="1" transform="rotate(-75 148.758 127.039)" fill="#D4D1CD"/>
<rect x="150.5" y="127.039" width="2" height="1" transform="rotate(-75 150.5 127.039)" fill="#D4D1CD"/>
<rect x="152" y="127.039" width="2" height="1" transform="rotate(-75 152 127.039)" fill="#D4D1CD"/>
<path d="M144.952 145H145.525L145.845 144.048H147.193L147.51 145H148.086L146.814 141.477H146.224L144.952 145ZM146.497 142.095H146.539L147.046 143.608H145.992L146.497 142.095ZM149.979 145.085C150.765 145.085 151.338 144.636 151.441 143.96V143.945H150.899L150.894 143.955C150.794 144.353 150.445 144.602 149.979 144.602C149.344 144.602 148.948 144.077 148.948 143.242V143.237C148.948 142.4 149.344 141.875 149.976 141.875C150.44 141.875 150.794 142.156 150.896 142.588V142.595H151.438L151.441 142.583C151.348 141.882 150.752 141.392 149.976 141.392C148.997 141.392 148.389 142.1 148.389 143.237V143.242C148.389 144.377 149 145.085 149.979 145.085Z" fill="#B4B4B4"/>
<path d="M146.351 151.085C147.369 151.085 147.994 150.368 147.994 149.24V149.235C147.994 148.104 147.364 147.392 146.351 147.392C145.34 147.392 144.705 148.102 144.705 149.235V149.24C144.705 150.37 145.325 151.085 146.351 151.085ZM146.351 150.602C145.672 150.602 145.264 150.065 145.264 149.24V149.235C145.264 148.402 145.684 147.875 146.351 147.875C147.017 147.875 147.435 148.402 147.435 149.235V149.24C147.435 150.065 147.02 150.602 146.351 150.602ZM148.863 151H149.39V148.766H149.974V148.349H149.385V148.095C149.385 147.826 149.5 147.685 149.793 147.685C149.876 147.685 149.947 147.689 149.996 147.697V147.309C149.905 147.294 149.803 147.284 149.683 147.284C149.131 147.284 148.863 147.543 148.863 148.07V148.349H148.426V148.766H148.863V151ZM150.767 151H151.294V148.766H151.878V148.349H151.29V148.095C151.29 147.826 151.404 147.685 151.697 147.685C151.78 147.685 151.851 147.689 151.9 147.697V147.309C151.81 147.294 151.707 147.284 151.587 147.284C151.036 147.284 150.767 147.543 150.767 148.07V148.349H150.33V148.766H150.767V151Z" fill="#D4D1CD"/>
<circle cx="186.25" cy="122.965" r="14" stroke="#D4D1CD"/>
<rect x="181.5" y="118" width="10" height="10" stroke="#D4D1CD"/>
<path d="M181.5 118H184.423L183.566 124H181.5V118Z" stroke="#D4D1CD"/>
<path d="M181.5 124H183.59L184.39 128H181.5V124Z" stroke="#D4D1CD"/>
<path d="M189.434 124L188.577 118H191.5V124H189.434Z" stroke="#D4D1CD"/>
<path d="M188.61 128L189.41 124H191.5V128H188.61Z" stroke="#D4D1CD"/>
<path d="M179.272 145H180.72C181.472 145 181.924 144.624 181.924 144.006V144.001C181.924 143.542 181.606 143.206 181.13 143.154V143.113C181.477 143.054 181.748 142.725 181.748 142.358V142.354C181.748 141.814 181.35 141.477 180.688 141.477H179.272V145ZM180.562 141.924C180.967 141.924 181.204 142.117 181.204 142.449V142.454C181.204 142.795 180.952 142.976 180.469 142.976H179.819V141.924H180.562ZM180.579 143.394C181.094 143.394 181.365 143.589 181.365 143.967V143.972C181.365 144.351 181.104 144.553 180.61 144.553H179.819V143.394H180.579ZM182.59 145H183.12V141.309H182.59V145ZM184.185 141.875C184.365 141.875 184.517 141.726 184.517 141.545C184.517 141.362 184.365 141.213 184.185 141.213C184.001 141.213 183.853 141.362 183.853 141.545C183.853 141.726 184.001 141.875 184.185 141.875ZM183.918 145H184.446V142.349H183.918V145ZM185.217 145H185.747V143.445C185.747 143.018 185.989 142.751 186.377 142.751C186.765 142.751 186.948 142.969 186.948 143.408V145H187.476V143.284C187.476 142.651 187.148 142.297 186.555 142.297C186.169 142.297 185.916 142.468 185.786 142.751H185.747V142.349H185.217V145ZM189.182 145.044C189.553 145.044 189.844 144.873 189.998 144.583H190.039V145H190.566V141.309H190.039V142.769H189.998C189.856 142.483 189.546 142.302 189.182 142.302C188.508 142.302 188.083 142.832 188.083 143.672V143.677C188.083 144.509 188.516 145.044 189.182 145.044ZM189.333 144.592C188.889 144.592 188.623 144.246 188.623 143.677V143.672C188.623 143.103 188.889 142.756 189.333 142.756C189.773 142.756 190.046 143.105 190.046 143.672V143.677C190.046 144.243 189.775 144.592 189.333 144.592ZM192.319 145.051C192.949 145.051 193.418 144.717 193.418 144.226V144.221C193.418 143.838 193.174 143.621 192.664 143.501L192.244 143.406C191.946 143.335 191.824 143.232 191.824 143.066V143.062C191.824 142.849 192.034 142.705 192.324 142.705C192.622 142.705 192.81 142.844 192.861 143.03V143.035H193.367V143.032C193.32 142.6 192.932 142.297 192.327 142.297C191.726 142.297 191.296 142.629 191.296 143.091V143.093C191.296 143.481 191.528 143.708 192.029 143.823L192.451 143.921C192.759 143.992 192.883 144.104 192.883 144.27V144.275C192.883 144.492 192.656 144.641 192.329 144.641C192.014 144.641 191.821 144.507 191.755 144.307L191.753 144.304H191.223V144.307C191.274 144.751 191.68 145.051 192.319 145.051Z" fill="#B4B4B4"/>
<path d="M184.351 151.085C185.369 151.085 185.994 150.368 185.994 149.24V149.235C185.994 148.104 185.364 147.392 184.351 147.392C183.34 147.392 182.705 148.102 182.705 149.235V149.24C182.705 150.37 183.325 151.085 184.351 151.085ZM184.351 150.602C183.672 150.602 183.264 150.065 183.264 149.24V149.235C183.264 148.402 183.684 147.875 184.351 147.875C185.017 147.875 185.435 148.402 185.435 149.235V149.24C185.435 150.065 185.02 150.602 184.351 150.602ZM186.863 151H187.39V148.766H187.974V148.349H187.385V148.095C187.385 147.826 187.5 147.685 187.793 147.685C187.876 147.685 187.947 147.689 187.996 147.697V147.309C187.905 147.294 187.803 147.284 187.683 147.284C187.131 147.284 186.863 147.543 186.863 148.07V148.349H186.426V148.766H186.863V151ZM188.767 151H189.294V148.766H189.878V148.349H189.29V148.095C189.29 147.826 189.404 147.685 189.697 147.685C189.78 147.685 189.851 147.689 189.9 147.697V147.309C189.81 147.294 189.707 147.284 189.587 147.284C189.036 147.284 188.767 147.543 188.767 148.07V148.349H188.33V148.766H188.767V151Z" fill="#D4D1CD"/>
</g>
<rect width="187.5" height="21" transform="translate(10.75 161)" fill="#F9F9F9"/>
<path d="M24.4888 177.183C27.1548 177.183 28.7515 175.894 28.7515 173.865V173.858C28.7515 172.195 27.7554 171.294 25.5435 170.855L24.4229 170.628C23.207 170.386 22.665 169.998 22.665 169.332V169.324C22.665 168.57 23.3462 168.05 24.4814 168.042C25.5728 168.042 26.3345 168.548 26.4443 169.375L26.4517 169.463H28.5391L28.5317 169.324C28.4292 167.471 26.9277 166.248 24.4814 166.248C22.1377 166.248 20.4531 167.522 20.4531 169.456V169.463C20.4531 171.053 21.5078 172.049 23.5952 172.466L24.7085 172.686C26.0195 172.957 26.5396 173.316 26.5396 174.034V174.041C26.5396 174.847 25.7705 175.381 24.5474 175.381C23.3389 175.381 22.4673 174.869 22.3281 174.048L22.3135 173.968H20.2261L20.2334 174.085C20.3579 176.033 21.9766 177.183 24.4888 177.183ZM33.5122 177.161C35.6069 177.161 36.9619 175.857 37.0645 174.144V174.1H35.0723L35.0649 174.166C34.9185 174.957 34.3838 175.484 33.5269 175.484C32.4722 175.484 31.813 174.612 31.813 173.074V173.067C31.813 171.565 32.4722 170.665 33.5195 170.665C34.4058 170.665 34.9258 171.236 35.0576 171.983L35.0723 172.049H37.0571V171.998C36.9766 170.298 35.6216 168.987 33.4902 168.987C31.1392 168.987 29.6377 170.547 29.6377 173.06V173.067C29.6377 175.601 31.1172 177.161 33.5122 177.161ZM41.6714 177.161C43.9126 177.161 44.9966 175.835 45.2383 174.678L45.2603 174.598H43.2974L43.2827 174.642C43.1289 175.081 42.5942 175.564 41.7153 175.564C40.624 175.564 39.9429 174.832 39.9209 173.58H45.3262V172.92C45.3262 170.547 43.8833 168.987 41.5835 168.987C39.2837 168.987 37.8115 170.584 37.8115 173.082V173.089C37.8115 175.601 39.269 177.161 41.6714 177.161ZM41.6201 170.584C42.5063 170.584 43.1436 171.148 43.2754 172.232H39.9429C40.082 171.17 40.7412 170.584 41.6201 170.584ZM46.4321 177H48.5708V172.488C48.5708 171.463 49.1787 170.76 50.1382 170.76C51.0977 170.76 51.5811 171.346 51.5811 172.371V177H53.7197V171.932C53.7197 170.093 52.7383 168.987 51.0098 168.987C49.8232 168.987 49.0176 169.537 48.6147 170.438H48.5708V169.148H46.4321V177ZM58.6489 177.161C60.8901 177.161 61.9741 175.835 62.2158 174.678L62.2378 174.598H60.2749L60.2603 174.642C60.1064 175.081 59.5718 175.564 58.6929 175.564C57.6016 175.564 56.9204 174.832 56.8984 173.58H62.3037V172.92C62.3037 170.547 60.8608 168.987 58.561 168.987C56.2612 168.987 54.7891 170.584 54.7891 173.082V173.089C54.7891 175.601 56.2466 177.161 58.6489 177.161ZM58.5977 170.584C59.4839 170.584 60.1211 171.148 60.2529 172.232H56.9204C57.0596 171.17 57.7188 170.584 58.5977 170.584Z" fill="#656667"/>
<g clip-path="url(#clip7_257_46365)">
<circle cx="34.25" cy="202.465" r="14" stroke="#1A56A2"/>
<circle cx="72.25" cy="202.465" r="14" stroke="#1A56A2"/>
<circle cx="110.25" cy="202.465" r="14" stroke="#D4D1CD"/>
<circle cx="148.25" cy="202.465" r="14" stroke="#D4D1CD"/>
</g>
</g>
</g>
</g>
<rect x="10.25" y="8.5" width="187.5" height="406" rx="18" fill="url(#paint1_linear_257_46365)" fill-opacity="0.25" style="mix-blend-mode:screen"/>
<path opacity="0.5" d="M205.75 91H206.5C206.914 91 207.25 91.3358 207.25 91.75V138.25C207.25 138.664 206.914 139 206.5 139H205.75V91Z" fill="black"/>
<path opacity="0.5" d="M2.25 120H1.5C1.08579 120 0.75 120.336 0.75 120.75V148.25C0.75 148.664 1.08579 149 1.5 149H2.25V120Z" fill="black"/>
<path opacity="0.5" d="M2.25 81.5H1.5C1.08579 81.5 0.75 81.8358 0.75 82.25V109.75C0.75 110.164 1.08579 110.5 1.5 110.5H2.25V81.5Z" fill="black"/>
<path opacity="0.5" d="M2.25 51H1.5C1.08579 51 0.75 51.3358 0.75 51.75V64.75C0.75 65.1642 1.08579 65.5 1.5 65.5H2.25V51Z" fill="black"/>
<path fill-rule="evenodd" clip-rule="evenodd" d="M64.75 8.5C66 8.5 67.25 9.75 67.25 11V11.7987C67.25 15.7759 70.4741 19 74.4513 19H134.049C138.026 19 141.25 15.7759 141.25 11.7987V11C141.25 9.57143 142.321 8.5 143.75 8.5H141.25H67.25H64.75Z" fill="url(#paint2_linear_257_46365)"/>
<g opacity="0.75">
<rect x="93.25" y="9.5" width="21.5" height="3.5" rx="1.75" fill="black"/>
<rect x="93.25" y="9.5" width="21.5" height="3.5" rx="1.75" fill="black"/>
</g>
<circle cx="119" cy="11.25" r="2.75" fill="black"/>
<circle cx="119" cy="11.25" r="2.75" fill="black"/>
<circle cx="119" cy="11.25" r="2.75" fill="black"/>
<circle cx="119" cy="11.25" r="2.75" fill="black"/>
<circle opacity="0.15" cx="119" cy="11.25" r="1.75" fill="white"/>
<defs>
<linearGradient id="paint0_linear_257_46365" x1="27.0913" y1="0.499999" x2="192.255" y2="99.3091" gradientUnits="userSpaceOnUse">
<stop stop-color="#3E3E3E"/>
<stop offset="1"/>
</linearGradient>
<linearGradient id="paint1_linear_257_46365" x1="11.9649" y1="10.7906" x2="186.8" y2="185.025" gradientUnits="userSpaceOnUse">
<stop stop-color="white"/>
<stop offset="0.645833" stop-color="white" stop-opacity="0"/>
</linearGradient>
<linearGradient id="paint2_linear_257_46365" x1="64.75" y1="8.5" x2="143.25" y2="8.5" gradientUnits="userSpaceOnUse">
<stop stop-color="#323232"/>
<stop offset="1" stop-color="#1D1D1D"/>
</linearGradient>
<clipPath id="clip0_257_46365">
<rect x="10.25" y="8.5" width="187.5" height="406" rx="18" fill="white"/>
</clipPath>
<clipPath id="clip1_257_46365">
<rect width="187.5" height="406" fill="white" transform="translate(10.75 8.5)"/>
</clipPath>
<clipPath id="clip2_257_46365">
<rect width="187.5" height="22" fill="white" transform="translate(10.75 8.5)"/>
</clipPath>
<clipPath id="clip3_257_46365">
<rect width="187.5" height="343.5" fill="white" transform="translate(10.75 30.5)"/>
</clipPath>
<clipPath id="clip4_257_46365">
<rect width="11" height="11" fill="white" transform="translate(45.75 35.5)"/>
</clipPath>
<clipPath id="clip5_257_46365">
<rect width="11" height="11" fill="white" transform="translate(178.25 35.5)"/>
</clipPath>
<clipPath id="clip6_257_46365">
<rect width="178.5" height="43.5" fill="white" transform="translate(10.75 108.5)"/>
</clipPath>
<clipPath id="clip7_257_46365">
<rect width="178.5" height="43.5" fill="white" transform="translate(10.75 188)"/>
</clipPath>
</defs>
</svg>
